<svg xmlns="http://www.w3.org/2000/svg" width="961" height="959" viewBox="0 0 961 959">
<g>
<path d="M 960.00 452.81 C960.00,456.21 960.22,459.00 960.50,459.00 C960.78,459.00 961.00,355.73 961.00,229.50 L 961.00 959.00 L 0.00 959.00 L 0.00 0.00 L 961.00 0.00 L 729.25 0.14 C605.99,0.22 509.66,0.62 509.66,1.04 C509.66,1.05 509.77,1.06 510.00,1.08 C604.67,7.08 693.87,39.55 768.50,95.19 C801.98,120.15 829.74,147.31 860.80,185.50 C871.61,198.78 891.38,228.87 902.21,248.50 C906.85,256.91 922.00,287.95 922.00,289.05 C922.00,289.62 922.90,291.85 924.01,294.01 C927.93,301.70 939.36,334.93 943.95,352.00 C945.21,356.67 946.61,361.85 947.06,363.50 C948.96,370.41 951.95,383.98 953.01,390.50 C953.64,394.35 954.54,399.08 955.01,401.00 C956.65,407.76 960.00,442.50 960.00,452.81 ZM 419.00 694.65 L 427.50 698.97 L 531.18 699.00 L 541.34 693.68 C552.08,688.05 567.15,678.98 570.50,676.12 C571.60,675.18 575.42,672.43 579.00,670.01 C599.17,656.36 612.94,644.05 616.98,636.04 C619.86,630.33 624.15,617.87 628.00,604.00 C631.59,591.06 636.17,550.60 635.81,535.00 C635.51,522.13 635.35,521.20 632.29,515.00 C630.53,511.42 626.56,504.67 623.47,500.00 C617.03,490.25 615.07,486.20 606.83,465.50 C597.75,442.73 589.61,427.58 583.02,421.23 C577.84,416.24 563.92,408.16 557.97,406.70 C555.05,405.98 547.96,400.16 545.08,396.11 C543.99,394.58 542.64,390.48 542.08,387.00 C539.83,373.03 530.66,371.37 513.63,381.82 C508.05,385.26 507.40,385.41 500.13,385.11 C488.13,384.62 484.71,384.69 481.65,385.51 C479.99,385.95 476.56,385.73 473.45,384.99 C469.15,383.96 466.96,383.95 462.23,384.95 C457.15,386.03 455.68,385.97 451.43,384.53 C448.72,383.62 444.48,381.58 442.00,380.00 C439.52,378.42 435.36,376.41 432.75,375.53 C428.62,374.13 427.48,374.10 423.94,375.30 C419.92,376.66 416.00,381.22 416.00,384.55 C416.00,385.37 414.72,388.87 413.15,392.33 C409.60,400.15 404.85,404.19 392.00,410.31 C379.66,416.19 370.26,424.26 364.46,433.96 C362.08,437.94 357.00,449.13 353.16,458.84 C343.42,483.54 338.22,495.09 335.56,498.00 C328.90,505.27 325.00,513.11 322.46,524.33 C319.74,536.27 319.77,538.18 323.04,565.50 C323.57,569.90 324.00,575.35 324.00,577.60 C324.00,579.86 324.40,583.01 324.88,584.60 C325.37,586.20 326.31,590.65 326.98,594.50 C327.64,598.35 328.57,602.85 329.05,604.50 C329.52,606.15 330.64,610.42 331.55,614.00 C333.42,621.37 340.56,638.55 342.93,641.36 C344.99,643.81 370.37,664.62 375.50,668.08 C393.52,680.21 407.94,689.03 419.00,694.65 ZM 0.13 230.75 C0.24,428.40 0.44,459.06 1.55,444.50 C7.72,363.42 32.47,289.45 76.64,220.00 C87.15,203.49 104.41,180.26 116.19,166.75 C125.39,156.22 158.20,123.57 167.50,115.69 C180.48,104.70 193.11,94.70 199.00,90.77 C202.02,88.75 206.98,85.35 210.00,83.22 C213.02,81.09 222.25,75.28 230.50,70.31 C297.70,29.83 367.99,7.37 445.50,1.59 C461.25,0.42 434.48,0.24 231.75,0.13 L 0.00 0.00 ZM 0.14 728.25 L 0.00 959.00 L 228.75 958.87 C424.08,958.75 454.87,958.55 439.50,957.45 C429.60,956.75 418.35,955.66 414.50,955.02 C410.65,954.39 404.80,953.43 401.50,952.89 C395.74,951.95 388.89,950.72 382.50,949.49 C380.85,949.17 377.70,948.46 375.50,947.90 C373.30,947.35 369.70,946.50 367.50,946.02 C356.24,943.57 320.62,932.52 308.50,927.72 C297.62,923.41 272.69,912.06 261.31,906.23 C226.88,888.61 194.90,867.27 167.50,843.65 C158.51,835.90 124.77,803.11 124.00,801.38 C123.72,800.76 120.18,796.62 116.11,792.17 C112.05,787.73 108.00,782.98 107.11,781.61 C106.23,780.25 102.32,774.94 98.43,769.82 C82.11,748.32 77.76,741.81 64.76,719.50 C27.55,655.65 6.74,586.70 1.08,508.50 C1.07,508.32 1.05,508.24 1.04,508.24 C0.62,508.24 0.22,605.04 0.14,728.25 ZM 508.50 958.31 C508.46,958.31 508.44,958.31 508.44,958.31 C508.44,958.50 608.12,958.72 732.25,958.82 L 961.00 959.00 L 960.84 729.25 C960.75,604.06 960.54,502.97 960.38,502.97 C960.37,502.97 960.37,502.98 960.37,503.00 C960.20,504.92 959.58,513.70 958.99,522.50 C958.39,531.30 957.48,541.31 956.96,544.75 C954.66,559.75 953.69,565.20 951.31,576.50 C949.91,583.10 948.42,590.30 947.99,592.50 C945.72,604.12 933.77,641.18 926.14,660.24 C913.61,691.60 890.96,732.54 871.29,759.43 C868.85,762.77 866.10,766.54 865.17,767.82 C864.25,769.10 860.12,774.33 856.00,779.45 C827.82,814.45 796.03,844.48 758.99,871.08 C748.99,878.26 744.19,881.33 723.85,893.61 C715.22,898.82 692.21,910.68 678.00,917.23 C663.55,923.90 629.47,936.74 617.50,940.03 C607.35,942.82 597.97,945.23 594.50,945.95 C592.30,946.41 586.22,947.75 581.00,948.93 C561.43,953.36 538.75,956.29 508.50,958.31 ZM 307.00 687.86 C314.22,690.47 317.32,689.78 323.87,684.13 C326.83,681.58 330.43,678.58 331.87,677.45 C335.43,674.67 347.99,667.41 350.66,666.59 C351.85,666.22 353.38,665.25 354.07,664.42 C355.12,663.16 354.12,661.77 347.77,655.71 C336.55,644.98 331.23,636.03 325.62,618.44 C321.81,606.50 320.19,598.53 316.95,575.78 C312.40,543.81 312.95,521.96 318.59,510.82 C319.92,508.21 321.00,505.56 321.00,504.95 C321.00,504.33 323.81,500.53 327.25,496.51 C333.84,488.80 333.79,488.89 343.67,460.62 C344.05,459.53 344.40,458.53 344.73,457.61 C346.73,451.97 347.66,449.35 346.94,447.31 C346.19,445.22 343.69,443.75 338.79,440.24 C325.97,431.07 314.00,421.83 314.00,421.12 C314.00,420.72 314.41,419.97 314.91,419.45 C316.83,417.44 319.76,411.22 321.84,404.79 C323.59,399.35 324.00,395.67 324.00,385.29 C324.00,378.23 323.36,369.36 322.58,365.50 C321.81,361.65 320.89,356.70 320.55,354.50 L 319.93 350.50 L 327.12 346.50 C331.07,344.30 337.28,340.07 340.90,337.11 C344.53,334.14 349.30,330.59 351.50,329.20 C353.70,327.82 359.23,322.82 363.79,318.10 C379.41,301.90 385.35,294.11 392.32,280.68 C398.35,269.03 399.19,266.65 401.48,254.71 C404.41,239.42 404.56,234.49 402.46,222.38 C400.40,210.49 399.09,205.83 398.00,206.50 C397.51,206.81 395.69,209.86 393.96,213.28 C386.13,228.79 378.32,240.19 366.30,253.65 C353.73,267.71 348.05,272.96 335.50,282.08 C326.78,288.42 315.03,295.36 314.29,294.62 C312.71,293.04 314.49,274.61 318.07,255.38 C321.72,235.77 322.60,232.66 329.45,215.31 C333.54,204.97 338.98,191.55 341.54,185.50 C344.10,179.45 346.46,173.61 346.78,172.52 C347.35,170.56 347.33,170.56 344.43,172.45 C342.82,173.51 337.84,177.16 333.37,180.57 C328.89,183.99 323.04,188.05 320.37,189.60 C306.29,197.77 288.63,214.26 276.57,230.51 C273.31,234.90 269.13,240.50 267.29,242.95 C265.45,245.40 260.87,253.73 257.13,261.45 C249.22,277.76 248.53,279.47 246.57,287.50 C245.76,290.80 244.00,297.77 242.64,303.00 C235.35,331.20 236.69,369.09 245.98,397.00 C250.67,411.09 255.11,418.54 262.63,424.95 C269.40,430.70 270.46,432.32 282.02,454.50 C290.80,471.34 293.33,474.84 312.15,496.25 C314.45,498.87 316.03,501.31 315.66,501.68 C314.95,502.38 301.91,498.83 296.09,496.34 C294.21,495.54 290.84,494.49 288.59,494.01 C286.34,493.54 281.80,492.45 278.50,491.61 C266.53,488.54 258.05,489.83 251.39,495.74 C246.46,500.12 245.91,501.89 247.74,507.44 C251.31,518.29 267.23,529.61 295.75,541.55 C301.62,544.00 304.52,545.69 303.68,546.16 C302.48,546.83 297.60,547.64 281.00,549.93 C249.94,554.22 250.28,554.15 246.64,557.15 C241.92,561.03 238.90,569.00 239.96,574.77 C240.91,579.95 241.79,581.04 247.25,583.77 C256.54,588.41 263.31,589.50 282.75,589.50 C292.79,589.50 301.00,589.83 301.00,590.24 C301.00,590.65 298.19,592.27 294.75,593.84 C287.55,597.13 274.88,606.37 267.22,613.91 C256.26,624.71 250.85,636.37 253.68,643.10 C256.43,649.62 263.79,655.00 269.98,655.00 C274.08,655.00 284.39,650.22 293.63,644.04 C297.77,641.27 301.52,639.00 301.96,639.00 C302.39,639.00 305.29,637.88 308.40,636.50 C311.51,635.12 315.04,634.00 316.24,634.00 C318.14,634.00 317.83,634.61 313.81,638.75 C302.34,650.55 295.45,664.78 296.20,675.12 C296.73,682.36 298.91,684.94 307.00,687.86 ZM 644.17 692.50 C647.71,694.07 648.02,694.04 655.00,691.49 C663.25,688.49 666.70,682.93 665.72,674.25 C664.89,666.82 656.80,651.88 649.31,643.94 C645.70,640.12 643.37,637.01 644.13,637.02 C646.96,637.05 661.74,643.77 668.00,647.87 C676.93,653.72 686.60,658.20 691.45,658.73 C694.95,659.12 696.14,658.67 700.25,655.45 C705.75,651.15 709.00,646.38 709.00,642.64 C709.00,637.96 705.43,630.46 699.91,623.54 C693.31,615.28 677.89,602.95 668.77,598.66 C665.07,596.92 662.03,595.05 662.02,594.50 C662.01,593.87 668.42,593.49 679.25,593.48 C692.40,593.46 697.99,593.05 702.79,591.74 C711.74,589.30 719.58,585.23 720.89,582.35 C723.65,576.29 720.77,565.33 715.30,561.02 C711.41,557.96 704.17,556.32 684.01,553.93 C673.85,552.72 663.72,551.18 661.51,550.50 L 657.50 549.27 L 662.50 547.04 C686.99,536.15 692.22,533.27 702.24,525.15 C710.53,518.42 713.46,514.52 714.53,508.75 C715.19,505.17 714.97,504.76 709.87,499.97 C703.20,493.71 699.24,492.50 690.08,493.92 C682.47,495.10 677.84,496.37 659.96,502.16 C653.06,504.40 646.63,506.06 645.67,505.86 C644.32,505.58 645.48,503.89 650.73,498.50 C654.48,494.65 659.78,488.58 662.51,485.00 C665.24,481.42 668.61,477.14 670.00,475.49 C671.38,473.83 676.56,464.61 681.50,454.99 C689.82,438.77 691.06,436.92 698.58,429.50 C708.16,420.04 710.11,417.01 714.07,405.31 C726.67,368.19 727.26,335.02 716.02,295.50 C706.44,261.77 692.97,239.57 665.97,212.95 C658.97,206.04 651.21,199.29 648.73,197.95 C643.03,194.85 631.52,187.04 622.65,180.25 C616.42,175.48 614.00,174.15 614.00,175.48 C614.00,175.75 615.34,178.78 616.98,182.23 C619.70,187.95 623.11,196.09 630.92,215.50 C637.44,231.69 639.88,238.86 640.97,245.00 C641.60,248.57 642.52,253.07 643.00,255.00 C646.72,269.83 649.32,298.00 646.96,298.00 C644.43,298.00 627.58,287.55 619.54,281.00 C613.78,276.30 601.65,264.31 593.40,255.15 C583.00,243.61 575.21,232.38 568.66,219.50 L 568.54 219.27 C565.32,212.92 563.82,209.97 562.83,210.13 C561.96,210.28 561.49,212.82 560.58,217.58 C557.56,233.38 557.42,244.21 560.04,258.16 C562.15,269.38 563.02,271.81 569.70,284.90 C576.17,297.61 578.18,300.55 586.76,309.90 C599.34,323.62 608.15,332.15 613.34,335.66 C615.63,337.20 619.78,340.27 622.58,342.48 C625.37,344.69 630.69,348.08 634.40,350.00 L 641.15 353.50 L 640.53 359.50 C640.20,362.80 639.46,367.98 638.89,371.00 C637.46,378.68 638.27,404.16 640.17,411.21 C641.08,414.55 643.03,418.41 644.88,420.52 C646.62,422.50 647.80,424.51 647.50,425.00 C647.20,425.48 639.51,431.60 630.39,438.60 C616.64,449.16 613.91,451.68 614.32,453.41 C614.59,454.56 617.15,462.02 619.99,470.00 C622.84,477.98 625.55,485.74 626.01,487.25 C627.05,490.60 629.88,494.75 636.16,502.11 C638.80,505.19 640.72,507.94 640.45,508.22 C640.17,508.50 641.17,511.15 642.66,514.11 C644.15,517.08 645.80,521.53 646.32,524.00 C647.82,531.13 648.28,554.73 647.10,563.50 C644.29,584.23 642.78,594.09 641.37,601.00 C634.80,633.24 626.71,649.51 610.85,662.41 C608.51,664.32 607.03,665.37 607.01,666.44 C606.99,667.94 609.82,669.48 617.12,673.45 C617.73,673.79 618.36,674.13 619.03,674.50 C624.07,677.25 631.04,682.09 634.51,685.26 C637.99,688.43 642.34,691.69 644.17,692.50 ZM 316.71 761.82 C323.73,764.39 329.03,762.46 330.95,756.64 C332.25,752.72 331.15,748.91 327.60,745.00 C323.64,740.63 317.09,729.99 316.03,726.18 C315.47,724.15 315.01,718.22 315.00,713.00 C314.99,702.23 313.49,698.49 307.76,694.99 C301.77,691.34 293.91,693.37 289.51,699.69 C286.16,704.51 286.30,719.80 289.80,733.22 C292.81,744.72 304.82,757.49 316.71,761.82 ZM 636.20 766.23 C640.46,766.95 645.47,765.76 651.00,762.72 C656.70,759.59 665.55,751.00 666.65,747.52 C667.00,746.42 668.32,743.95 669.58,742.01 C673.75,735.62 676.26,716.09 673.97,707.85 C672.91,704.01 666.84,697.72 663.04,696.51 C658.95,695.21 649.62,700.33 647.81,704.87 C647.23,706.32 646.67,712.45 646.58,718.50 C646.37,731.39 645.19,734.51 636.49,745.31 C633.48,749.06 630.72,753.28 630.36,754.69 C629.45,758.32 633.19,765.73 636.20,766.23 ZM 227.81 726.75 C234.80,732.58 239.05,728.32 246.51,708.00 C249.63,699.47 254.62,687.44 257.60,681.26 C260.57,675.07 263.00,668.98 263.00,667.72 C263.00,663.86 258.72,656.67 255.22,654.66 C251.19,652.35 244.49,653.04 240.50,656.18 C235.42,660.18 226.95,680.54 223.96,695.94 C220.67,712.92 221.77,721.69 227.81,726.75 ZM 726.37 732.01 C729.71,733.36 730.64,733.17 733.85,730.47 C738.66,726.43 740.21,720.17 739.08,709.45 C737.77,697.07 735.78,689.30 730.68,676.64 C725.84,664.64 721.49,658.98 715.59,657.03 C710.13,655.23 704.40,658.69 700.74,666.01 L 697.98 671.53 L 704.99 686.77 C708.85,695.15 712.00,702.41 712.00,702.92 C712.00,703.42 713.80,708.24 716.00,713.62 C718.20,719.01 720.00,723.82 720.00,724.30 C720.00,726.01 724.26,731.16 726.37,732.01 ZM 232.36 494.08 C241.69,499.77 252.31,491.24 250.55,479.48 C250.02,475.97 248.18,472.74 242.11,464.74 C237.85,459.11 231.94,450.90 229.00,446.50 C216.63,428.03 211.30,424.67 204.18,430.84 C200.11,434.37 201.60,444.39 208.49,459.92 C210.54,464.55 213.60,470.62 215.28,473.42 C219.95,481.17 228.85,491.94 232.36,494.08 ZM 718.51 498.79 C721.10,500.29 725.93,500.25 728.71,498.70 C731.45,497.18 738.86,488.57 744.21,480.69 C751.97,469.26 760.00,448.53 760.00,439.93 C760.00,436.39 754.97,432.00 750.93,432.00 C746.62,432.00 740.96,437.67 732.49,450.46 C728.47,456.53 722.24,465.26 718.64,469.85 C713.55,476.35 711.94,479.21 711.41,482.77 C710.35,489.82 712.88,495.52 718.51,498.79 ZM 730.19 569.65 C734.37,571.97 741.92,571.29 748.50,568.00 C772.82,555.86 787.91,541.30 787.98,529.92 C788.01,525.46 784.36,521.67 780.04,521.67 C777.06,521.67 775.11,522.77 759.81,533.13 C755.24,536.22 748.86,540.20 745.63,541.98 C742.40,543.75 737.54,546.50 734.83,548.10 C732.13,549.69 729.51,551.00 729.02,551.00 C727.36,551.00 724.00,556.80 724.01,559.65 C724.01,563.06 726.99,567.87 730.19,569.65 ZM 218.00 566.08 C223.28,568.22 225.59,568.39 229.80,566.92 C233.14,565.76 238.00,558.74 238.00,555.10 C238.00,552.83 232.84,547.68 227.18,544.31 C219.57,539.77 208.81,534.00 207.96,534.00 C207.47,534.00 205.59,532.71 203.78,531.13 C197.15,525.33 184.81,518.00 181.69,518.00 C177.02,518.00 174.00,521.42 174.00,526.71 C174.00,533.16 176.94,537.86 186.20,546.19 C196.56,555.50 205.05,560.82 218.00,566.08 ZM 358.00 774.40 C368.35,775.61 387.80,773.35 391.64,770.50 C393.34,769.24 393.36,768.98 391.91,767.51 C390.38,765.95 376.72,762.00 372.86,762.00 C371.82,762.00 370.19,761.56 369.24,761.03 C366.77,759.65 353.69,756.00 351.20,756.00 C350.06,756.00 348.84,755.55 348.50,755.00 C348.16,754.45 346.29,754.00 344.34,754.00 C341.65,754.00 339.99,754.81 337.40,757.40 C335.53,759.27 334.00,761.54 334.00,762.44 C334.00,764.92 336.98,768.95 339.90,770.40 C342.47,771.68 351.21,773.62 358.00,774.40 ZM 587.50 778.40 C596.19,779.58 614.94,777.07 621.22,773.88 C628.55,770.16 629.10,762.78 622.32,759.16 C619.07,757.44 615.44,757.76 606.00,760.61 C594.54,764.07 592.09,764.73 580.66,767.43 C575.25,768.70 570.14,770.43 569.30,771.27 C567.93,772.65 568.01,772.95 570.13,774.27 C572.27,775.60 579.45,777.30 587.50,778.40 ZM 702.75 788.26 C709.10,789.74 726.08,771.01 731.54,756.49 C736.05,744.50 733.95,737.98 725.58,738.02 C723.33,738.02 721.03,738.36 720.45,738.77 C719.08,739.72 715.41,748.52 714.52,753.00 C713.58,757.69 705.61,777.95 703.05,782.15 C700.55,786.26 700.47,787.73 702.75,788.26 ZM 252.29 782.03 C259.52,786.44 260.71,783.80 256.00,773.84 C254.35,770.35 253.00,766.99 253.00,766.37 C253.00,765.76 251.93,762.83 250.63,759.87 C249.32,756.92 247.27,750.90 246.07,746.50 C243.00,735.26 242.01,734.00 236.29,734.00 C227.43,734.00 225.02,739.28 229.04,749.87 C234.51,764.25 243.48,776.66 252.29,782.03 ZM 755.36 428.01 C756.54,428.48 757.82,428.90 758.20,428.94 C759.94,429.09 764.11,426.48 765.49,424.38 C768.90,419.16 769.93,387.99 767.01,377.86 C765.77,373.54 763.42,371.18 761.87,372.73 C760.02,374.58 750.00,413.58 750.00,418.93 C750.00,423.03 752.18,426.73 755.36,428.01 ZM 198.71 422.98 C202.32,425.83 205.65,425.51 209.18,421.98 C213.29,417.87 213.11,416.45 204.35,383.50 C200.03,367.23 197.94,364.78 195.04,372.58 C193.95,375.50 193.58,381.19 193.59,395.00 C193.61,415.18 194.42,419.61 198.71,422.98 ZM 167.10 513.74 C170.17,515.32 170.51,515.30 174.03,513.48 C176.99,511.95 180.00,507.44 180.00,504.53 C180.00,503.66 178.25,499.48 176.12,495.23 C173.98,490.98 171.25,484.12 170.06,480.00 C164.16,459.68 162.66,457.02 159.96,462.08 C158.19,465.38 157.48,489.10 158.95,495.78 C160.92,504.68 164.39,512.34 167.10,513.74 ZM 788.38 517.39 C794.08,520.27 798.55,515.82 801.42,504.38 C803.87,494.61 804.35,486.74 803.13,476.00 C802.33,469.03 801.58,466.17 800.31,465.24 C798.16,463.67 797.15,465.33 794.05,475.53 C789.70,489.83 787.61,495.65 784.84,501.22 C783.28,504.37 782.00,508.03 782.00,509.36 C782.00,512.29 784.50,515.43 788.38,517.39 Z" fill="rgb(1,182,242)"/>
<path d="M 0.13 230.75 L 0.00 0.00 L 0.14 228.25 C0.21,350.99 0.58,439.35 1.02,447.15 C0.37,441.88 0.22,391.65 0.13,230.75 ZM 3.04 529.94 C6.04,557.06 10.96,583.07 17.85,608.16 C10.61,582.26 5.59,555.94 3.04,529.94 ZM 677.68 603.96 C674.33,601.74 670.86,599.73 667.35,598.00 L 658.21 593.50 L 675.48 593.50 C666.95,593.59 662.01,593.95 662.02,594.50 C662.03,595.05 665.07,596.92 668.77,598.66 C671.35,599.88 674.44,601.74 677.68,603.96 ZM 306.60 32.70 C285.32,41.00 264.46,50.92 243.92,62.49 C249.13,59.51 254.05,56.78 258.00,54.70 C273.59,46.51 289.86,39.15 306.60,32.70 ZM 544.16 4.42 C558.90,6.29 570.64,8.41 585.50,11.67 C604.43,15.82 623.13,21.16 641.45,27.61 C610.14,16.63 577.57,8.85 544.16,4.42 ZM 611.98 0.33 C551.45,0.51 512.32,0.77 512.32,1.06 C512.32,1.07 512.38,1.08 512.50,1.09 C515.77,1.39 518.88,1.68 521.84,1.97 C517.90,1.63 513.95,1.33 510.00,1.08 C509.77,1.06 509.66,1.05 509.66,1.04 C509.66,0.76 550.05,0.50 611.98,0.33 ZM 40.43 287.57 C50.45,264.59 62.27,242.59 76.64,220.00 C62.62,242.04 50.56,264.53 40.43,287.57 ZM 704.47 630.10 C701.53,625.40 697.33,620.41 692.33,615.64 C695.35,618.42 698.00,621.15 699.91,623.54 C701.63,625.71 703.17,627.93 704.47,630.10 ZM 0.71 528.05 C0.81,515.30 0.93,508.24 1.04,508.24 C1.05,508.24 1.07,508.32 1.08,508.50 C1.32,511.79 1.58,515.06 1.87,518.32 C1.55,515.14 1.25,512.30 1.04,510.50 C1.04,510.43 1.03,510.39 1.02,510.39 C0.91,510.39 0.81,516.67 0.71,528.05 ZM 1.11 447.60 C1.12,447.57 1.12,447.54 1.12,447.50 C1.49,443.61 1.87,439.84 2.25,436.16 C2.00,438.93 1.76,441.71 1.55,444.50 C1.39,446.66 1.24,447.83 1.11,447.60 ZM 9.36 386.58 C11.27,376.66 13.45,367.15 15.99,357.61 C13.48,367.17 11.27,376.82 9.36,386.58 ZM 432.75 2.70 C422.56,3.71 412.49,5.02 402.54,6.63 C412.62,4.98 422.70,3.66 432.75,2.70 ZM 226.40 72.80 C219.39,77.08 212.53,81.44 210.00,83.22 C213.39,80.83 219.45,77.00 226.40,72.80 Z" fill="rgb(103,218,243)"/>
<path d="M 960.00 452.81 C960.00,443.79 957.44,416.08 955.70,404.75 C956.47,408.86 957.03,413.15 958.01,421.89 C958.58,427.05 959.29,431.66 959.58,432.14 C959.88,432.61 960.32,433.00 960.56,433.00 C960.79,433.00 960.99,342.58 961.00,229.50 C961.00,355.72 960.78,459.00 960.50,459.00 C960.22,459.00 960.00,456.21 960.00,452.81 ZM 508.50 958.31 C538.75,956.29 561.43,953.36 581.00,948.93 C586.22,947.75 592.29,946.41 594.50,945.95 C592.29,946.41 586.22,947.75 581.00,948.94 C567.84,951.92 562.85,952.76 539.98,955.87 C535.85,956.43 531.35,957.34 529.98,957.88 C529.22,958.19 544.18,958.43 574.79,958.60 C533.77,958.51 508.44,958.41 508.44,958.31 C508.44,958.31 508.46,958.31 508.50,958.31 ZM 960.62 562.44 C960.47,540.05 960.28,528.00 960.06,528.00 C959.54,528.00 958.86,530.14 958.53,532.75 C958.15,535.85 957.73,539.00 957.29,542.17 C957.81,537.60 958.51,529.65 958.99,522.50 C959.58,513.70 960.20,504.92 960.37,503.00 C960.37,502.98 960.37,502.97 960.38,502.97 C960.46,502.97 960.54,525.49 960.62,562.44 ZM 655.49 503.55 C646.93,506.58 642.00,509.12 642.00,510.60 C642.00,511.41 642.73,513.74 643.63,515.78 C644.19,517.05 644.85,518.95 645.41,520.80 C644.66,518.58 643.63,516.03 642.66,514.11 C641.17,511.15 640.17,508.50 640.45,508.22 C640.69,507.97 639.20,505.77 637.01,503.12 C639.03,505.35 640.86,507.00 641.39,507.00 C642.95,507.00 656.38,493.00 662.50,485.00 C665.23,481.43 668.60,477.15 669.99,475.49 C668.60,477.15 665.24,481.43 662.51,485.00 C659.78,488.58 654.48,494.65 650.73,498.50 C645.48,503.89 644.32,505.58 645.67,505.86 C646.41,506.02 650.47,505.05 655.49,503.55 ZM 329.45 215.31 C326.70,222.28 324.91,226.95 323.52,231.31 C324.91,226.95 326.70,222.28 329.45,215.31 C333.53,204.97 338.48,192.69 340.44,188.04 C342.40,183.38 344.00,178.80 344.00,177.85 C344.00,175.04 342.17,174.72 339.24,177.01 C337.73,178.19 332.00,182.04 326.50,185.58 L 326.36 185.67 C328.67,184.06 331.18,182.24 333.37,180.57 C337.84,177.16 342.82,173.51 344.43,172.45 C347.33,170.56 347.35,170.56 346.78,172.52 C346.46,173.61 344.10,179.45 341.54,185.50 C338.98,191.55 333.54,204.97 329.45,215.31 ZM 637.03 190.59 C636.36,190.14 635.69,189.69 635.05,189.25 C630.00,185.81 625.51,183.00 625.07,183.00 C624.63,183.00 623.07,182.06 621.61,180.90 C620.14,179.75 618.28,179.06 617.47,179.37 C616.21,179.86 616.29,180.57 617.97,184.22 C619.10,186.68 621.23,191.71 624.24,199.05 C620.83,190.75 618.76,185.97 616.98,182.23 C615.34,178.78 614.00,175.75 614.00,175.48 C614.00,174.15 616.42,175.48 622.65,180.25 C627.13,183.68 632.29,187.37 637.03,190.59 ZM 239.49 495.84 C241.39,495.42 243.23,494.15 245.25,492.01 C248.37,488.70 249.00,487.30 249.01,483.76 C249.02,481.42 249.28,478.56 249.59,477.42 C249.72,476.91 249.61,476.22 249.18,475.24 C249.95,476.81 250.35,478.12 250.55,479.48 C251.87,488.26 246.28,495.23 239.49,495.84 ZM 336.23 481.44 C337.43,478.06 339.15,473.27 340.88,468.50 C346.36,453.41 346.97,449.34 344.25,446.20 C342.52,444.22 336.26,438.85 329.75,433.67 C332.61,435.78 335.67,438.01 338.79,440.24 C343.69,443.75 346.19,445.22 346.94,447.31 C347.66,449.35 346.73,451.97 344.73,457.61 C344.40,458.53 344.05,459.53 343.67,460.62 C340.21,470.52 337.97,476.95 336.23,481.44 ZM 702.75 788.26 C700.47,787.73 700.55,786.26 703.05,782.15 C704.29,780.11 706.80,774.31 709.17,768.33 C708.90,769.02 708.63,769.71 708.36,770.40 C705.36,778.05 703.14,784.91 703.42,785.65 C704.50,788.47 708.20,787.00 712.65,783.19 C708.67,786.72 705.03,788.79 702.75,788.26 ZM 767.70 381.06 C767.36,379.98 766.86,379.20 766.14,378.20 C763.15,374.00 761.00,374.42 759.44,379.50 C758.87,381.37 758.36,383.05 757.91,384.54 C759.70,378.19 761.25,373.35 761.87,372.73 C763.42,371.18 765.77,373.54 767.01,377.86 C767.28,378.77 767.50,379.84 767.70,381.06 ZM 169.04 476.51 C167.57,471.75 165.52,466.83 164.26,465.16 C162.05,462.21 161.58,461.99 160.28,463.29 C159.45,464.12 158.81,468.12 158.44,473.14 C158.74,467.81 159.27,463.37 159.96,462.08 C162.50,457.33 163.98,459.39 169.04,476.51 ZM 412.80 0.42 C450.11,0.62 454.00,0.96 445.50,1.59 C441.23,1.91 436.98,2.28 432.75,2.70 L 432.74 2.70 C432.42,2.73 432.09,2.76 431.76,2.80 C433.23,2.54 434.91,2.07 436.14,1.54 C437.41,0.98 433.35,0.64 412.80,0.42 ZM 257.47 491.85 C255.82,493.00 253.20,495.50 251.16,497.92 C247.39,502.40 246.93,503.44 247.53,506.27 C247.75,507.29 248.06,508.29 248.45,509.27 C248.18,508.66 247.94,508.05 247.74,507.44 C245.91,501.89 246.46,500.12 251.39,495.74 C253.26,494.08 255.27,492.79 257.47,491.85 ZM 400.99 214.52 C400.28,211.91 399.61,211.40 397.93,211.20 C395.95,210.97 395.04,211.76 391.76,217.53 C392.49,216.15 393.23,214.73 393.96,213.28 C395.69,209.86 397.51,206.81 398.00,206.50 C398.81,206.00 399.73,208.42 400.99,214.52 ZM 236.71 734.00 C232.03,734.09 229.37,736.52 228.43,741.54 C227.85,744.59 228.70,748.82 230.49,753.45 C229.99,752.27 229.50,751.08 229.04,749.87 C225.02,739.28 227.43,734.00 236.29,734.00 C236.43,734.00 236.57,734.00 236.71,734.00 ZM 385.19 772.71 C388.18,771.81 390.00,770.66 390.00,769.35 C390.00,767.58 385.61,765.05 380.75,763.48 C385.68,764.77 390.99,766.57 391.91,767.51 C393.36,768.98 393.34,769.24 391.64,770.50 C390.55,771.31 388.22,772.07 385.19,772.71 ZM 207.40 395.05 C206.52,391.70 205.50,387.88 204.32,383.50 C201.31,372.31 200.44,370.92 197.25,372.10 C195.36,372.80 194.39,374.25 193.93,379.20 C194.16,375.99 194.52,373.97 195.04,372.58 C197.94,364.78 200.03,367.23 204.35,383.50 C205.52,387.88 206.53,391.70 207.40,395.05 ZM 568.66 219.50 C570.18,222.49 571.77,225.39 573.44,228.22 C572.03,225.86 570.69,223.46 569.40,221.00 C563.80,210.37 561.64,211.14 559.45,224.58 C559.20,226.15 558.98,227.66 558.80,229.12 C559.20,225.52 559.79,221.72 560.58,217.58 C561.49,212.82 561.96,210.28 562.83,210.13 C563.82,209.97 565.32,212.92 568.54,219.27 L 568.54 219.27 ZM 599.42 323.25 C603.27,327.02 606.04,329.29 607.81,330.15 C610.21,331.31 612.39,332.86 612.67,333.59 C613.58,335.95 626.31,345.59 633.82,349.60 L 639.92 352.86 L 634.40 350.00 C630.69,348.08 625.37,344.69 622.58,342.48 C619.78,340.27 615.63,337.20 613.34,335.66 C610.11,333.48 605.48,329.36 599.42,323.25 ZM 1.11 447.60 C1.08,447.54 1.05,447.39 1.02,447.15 C0.90,444.97 0.78,436.51 0.67,422.77 C0.81,432.11 0.96,436.45 1.15,436.00 C1.65,434.77 2.95,427.30 4.18,418.67 C3.44,424.46 2.80,430.29 2.25,436.16 C1.87,439.84 1.49,443.61 1.12,447.50 C1.12,447.54 1.12,447.57 1.11,447.60 ZM 391.05 958.64 C418.98,958.47 432.28,958.23 431.75,957.92 C430.86,957.40 427.32,956.62 423.63,956.10 C428.39,956.58 434.14,957.07 439.50,957.45 C448.76,958.11 441.26,958.45 391.05,958.64 ZM 537.59 0.67 C528.05,0.80 523.56,0.96 524.00,1.13 C525.38,1.69 531.90,2.80 538.50,3.61 C544.42,4.34 550.31,5.17 556.17,6.10 C552.32,5.50 548.36,4.95 544.16,4.42 C536.76,3.44 529.31,2.62 521.84,1.97 C518.88,1.68 515.77,1.39 512.50,1.09 C512.38,1.08 512.32,1.07 512.32,1.06 C512.32,0.92 521.40,0.79 537.59,0.67 ZM 3.04 529.94 C3.46,534.25 3.95,538.57 4.51,542.90 C4.17,540.40 3.86,537.90 3.56,535.39 C2.85,529.28 1.76,523.43 1.16,522.39 C0.97,522.07 0.81,525.01 0.68,531.71 C0.69,530.44 0.70,529.22 0.71,528.05 C0.81,516.67 0.91,510.39 1.02,510.39 C1.03,510.39 1.04,510.43 1.04,510.50 C1.25,512.30 1.55,515.14 1.87,518.32 C2.22,522.21 2.61,526.09 3.04,529.94 ZM 578.76 776.90 C574.64,776.04 571.44,775.08 570.13,774.27 C568.01,772.95 567.93,772.65 569.30,771.27 C570.14,770.43 575.25,768.70 580.66,767.43 C590.42,765.12 593.64,764.31 601.50,761.96 C593.85,764.25 590.61,765.09 582.98,766.90 C574.18,768.98 571.00,770.49 571.00,772.59 C571.00,774.05 574.13,775.71 578.76,776.90 ZM 320.56 506.46 L 316.50 503.07 L 319.15 503.03 C320.90,503.01 322.64,501.77 326.03,497.96 C323.17,501.41 321.00,504.41 321.00,504.95 C321.00,505.19 320.84,505.73 320.56,506.46 ZM 639.41 407.01 C640.04,409.23 640.96,411.23 642.29,413.70 C643.23,415.46 644.00,417.41 644.00,418.04 C644.00,418.67 644.89,420.32 645.99,421.71 C646.78,422.72 647.35,423.78 647.49,424.47 C647.25,423.62 646.23,422.06 644.88,420.52 C643.03,418.41 641.08,414.55 640.17,411.21 C639.89,410.17 639.64,408.73 639.41,407.01 ZM 755.36 428.01 C752.18,426.73 750.00,423.03 750.00,418.93 C750.00,418.79 750.01,418.62 750.02,418.43 C750.09,421.25 750.75,423.69 752.05,425.34 C753.90,427.69 754.57,427.89 758.80,427.35 C762.63,426.86 764.99,425.71 766.41,422.16 C766.13,423.12 765.82,423.87 765.49,424.38 C764.11,426.48 759.94,429.09 758.20,428.94 C757.82,428.90 756.54,428.48 755.36,428.01 ZM 607.54 467.28 C607.29,467.11 606.98,467.00 606.63,467.00 C605.74,467.00 605.08,465.36 604.74,462.34 C604.39,459.27 601.54,452.36 596.39,442.09 C594.75,438.83 593.38,436.16 592.17,433.92 C596.66,441.76 601.59,452.36 606.83,465.50 C607.07,466.11 607.30,466.70 607.54,467.28 ZM 751.83 408.63 C752.79,404.33 754.03,399.24 755.31,394.26 C754.93,396.13 754.80,397.46 754.80,398.77 C754.81,400.82 754.21,403.62 753.47,405.00 C752.84,406.18 752.30,407.40 751.83,408.63 ZM 386.17 227.33 C380.22,237.36 375.39,243.58 365.59,254.50 C356.07,265.10 350.46,270.63 342.27,277.01 C350.58,270.53 356.23,264.92 366.30,253.65 C374.41,244.57 380.60,236.43 386.17,227.33 ZM 768.31 409.15 C768.45,405.65 768.50,401.48 768.50,396.50 C768.50,392.88 768.49,390.11 768.44,387.96 C768.86,394.45 768.79,402.32 768.31,409.15 ZM 299.23 205.62 C291.72,212.72 283.13,221.96 277.63,229.10 C283.87,220.91 291.46,212.72 299.23,205.62 ZM 22.88 333.90 C28.91,314.95 36.15,296.43 44.63,278.23 C53.82,258.49 64.48,239.13 76.64,220.00 C64.53,239.04 53.88,258.42 44.68,278.19 C43.23,281.30 41.81,284.43 40.43,287.57 C33.74,302.77 27.89,318.21 22.88,333.90 ZM 402.34 250.07 C403.66,242.13 404.04,235.80 403.47,229.12 C404.25,235.89 403.94,241.00 402.34,250.07 ZM 612.94 480.47 C610.39,475.11 608.40,470.39 608.05,468.57 C609.99,473.42 611.56,477.26 612.94,480.47 ZM 568.98 283.50 C569.34,284.19 569.71,284.91 570.11,285.67 C576.80,298.50 578.38,300.77 589.67,313.06 C588.72,312.04 587.75,310.99 586.76,309.90 C578.18,300.55 576.17,297.61 569.70,284.90 C569.45,284.42 569.21,283.95 568.98,283.50 ZM 587.50 778.40 C587.10,778.34 586.69,778.29 586.29,778.23 C591.19,778.72 597.04,778.63 602.66,778.10 C596.94,778.73 591.27,778.91 587.50,778.40 ZM 262.71 524.31 C259.56,522.10 256.88,519.90 254.68,517.72 C254.98,517.98 255.28,518.24 255.60,518.50 C257.45,520.00 260.49,522.49 262.71,524.31 ZM 953.87 563.66 C952.91,569.04 951.92,574.10 950.94,578.58 C949.76,584.04 948.43,590.30 948.00,592.50 C947.50,595.01 946.57,598.68 945.32,603.09 C946.57,598.67 947.50,595.00 947.99,592.50 C948.42,590.30 949.91,583.10 951.31,576.50 C952.36,571.53 953.13,567.68 953.87,563.66 ZM 429.74 3.00 C423.94,3.60 418.13,4.31 412.32,5.13 C420.54,3.90 427.56,3.01 429.74,3.00 ZM 264.13 490.16 C268.30,489.72 273.04,490.21 278.50,491.61 C273.76,490.39 268.36,489.90 264.13,490.16 ZM 558.88 250.74 C559.24,253.48 559.73,256.38 560.36,259.55 C561.42,264.92 562.20,268.28 563.55,271.88 C561.98,267.81 561.19,264.30 560.04,258.16 C559.56,255.60 559.17,253.14 558.88,250.74 ZM 320.00 189.81 C316.74,191.96 313.50,194.13 311.11,195.77 C314.17,193.49 317.16,191.49 320.00,189.81 ZM 358.00 774.40 C354.52,774.00 350.53,773.30 347.12,772.53 C350.64,773.32 354.73,774.02 358.00,774.34 C360.10,774.54 362.22,774.67 364.31,774.73 C362.01,774.73 359.86,774.62 358.00,774.40 ZM 239.78 769.83 C243.64,774.98 248.04,779.44 252.28,782.03 C248.01,779.43 243.70,775.17 239.78,769.83 ZM 314.12 531.36 C314.63,522.60 316.07,515.81 318.44,511.13 C316.08,515.95 314.64,522.71 314.12,531.36 ZM 198.71 422.98 C195.28,420.29 194.07,416.91 193.72,405.37 C194.10,416.79 195.31,420.32 198.71,422.98 ZM 211.39 412.15 C212.38,418.30 211.41,419.74 209.18,421.98 C211.38,419.77 212.33,418.17 211.39,412.15 ZM 318.51 425.10 C316.80,423.81 315.69,422.91 315.02,422.21 C315.79,422.90 316.99,423.89 318.51,425.10 ZM 640.42 360.60 C640.12,363.40 639.65,366.76 639.24,369.04 C639.66,366.44 640.12,363.16 640.42,360.60 ZM 638.64 372.74 C638.47,374.53 638.32,377.04 638.21,379.89 C638.28,377.11 638.42,374.64 638.64,372.74 ZM 329.15 494.26 C330.19,492.96 331.18,491.63 332.03,490.40 C331.18,491.74 330.27,492.91 329.15,494.26 ZM 386.37 950.22 C391.58,951.20 396.89,952.14 401.50,952.89 C396.10,952.01 390.90,951.10 386.37,950.22 ZM 647.48 425.02 C647.48,425.03 647.47,425.04 647.47,425.05 C647.19,425.50 639.51,431.60 630.39,438.60 C639.37,431.70 646.98,425.66 647.48,425.02 ZM 953.89 395.50 C953.58,393.86 953.27,392.10 953.01,390.50 C952.41,386.83 951.20,380.93 949.92,375.24 C951.20,380.93 952.42,386.83 953.02,390.50 C953.28,392.07 953.59,393.82 953.89,395.50 ZM 241.87 735.68 C243.37,737.31 244.42,740.47 246.07,746.50 C244.43,740.51 243.34,737.33 241.87,735.68 ZM 374.01 762.08 C373.75,762.06 373.49,762.05 373.24,762.04 C372.98,762.04 372.69,762.02 372.40,761.98 C372.56,761.99 372.72,762.00 372.86,762.00 C373.18,762.00 373.57,762.03 374.01,762.08 ZM 284.85 536.73 C288.34,538.35 292.02,539.99 295.75,541.55 C291.88,539.93 288.25,538.32 284.85,536.73 ZM 176.12 495.23 C178.25,499.47 180.00,503.66 180.00,504.53 C180.00,503.66 178.22,499.42 176.06,495.11 C175.83,494.65 175.59,494.16 175.34,493.63 C175.60,494.19 175.86,494.73 176.12,495.23 ZM 314.25 420.37 C314.35,420.07 314.59,419.78 314.91,419.45 C314.65,419.72 314.41,420.06 314.25,420.37 ZM 714.48 753.18 C714.49,753.12 714.51,753.06 714.52,753.00 C714.66,752.30 714.87,751.49 715.12,750.63 C714.87,751.49 714.66,752.30 714.52,753.00 C714.51,753.05 714.50,753.11 714.48,753.18 ZM 158.90 495.51 C158.92,495.61 158.94,495.70 158.96,495.80 C159.05,496.21 159.14,496.62 159.24,497.03 C159.14,496.61 159.05,496.20 158.95,495.78 C158.94,495.69 158.92,495.60 158.90,495.51 Z" fill="rgb(204,250,254)"/>
<path d="M 0.03 739.75 C0.05,580.02 0.36,521.01 1.16,522.39 C1.76,523.43 2.85,529.28 3.56,535.39 C11.25,600.69 32.13,663.52 64.76,719.50 C77.76,741.81 82.11,748.32 98.43,769.82 C102.32,774.94 106.23,780.25 107.11,781.61 C108.00,782.98 112.05,787.73 116.11,792.17 C120.18,796.62 123.72,800.76 124.00,801.38 C124.77,803.11 158.51,835.90 167.50,843.65 C194.90,867.27 226.88,888.61 261.31,906.23 C272.69,912.06 297.62,923.41 308.50,927.72 C320.62,932.52 356.24,943.57 367.50,946.02 C369.70,946.50 373.52,947.39 376.00,948.01 C385.45,950.36 406.26,953.91 422.75,955.99 C426.74,956.49 430.79,957.36 431.75,957.92 C432.94,958.61 364.28,958.95 216.75,958.97 L 0.00 959.00 L 0.03 739.75 ZM 529.98 957.88 C531.35,957.34 535.85,956.43 539.98,955.87 C562.85,952.76 567.84,951.92 581.00,948.94 C586.22,947.75 592.30,946.41 594.50,945.95 C597.97,945.23 607.35,942.82 617.50,940.03 C629.47,936.74 663.55,923.90 678.00,917.23 C692.21,910.68 715.22,898.82 723.85,893.61 C744.19,881.33 748.99,878.26 758.99,871.08 C796.03,844.48 827.82,814.45 856.00,779.45 C860.12,774.33 864.25,769.10 865.17,767.82 C866.10,766.54 868.85,762.77 871.29,759.43 C890.96,732.54 913.61,691.60 926.14,660.24 C933.76,641.20 945.70,604.18 948.00,592.50 C948.43,590.30 949.76,584.04 950.94,578.58 C953.71,565.90 956.58,548.57 958.53,532.75 C958.86,530.14 959.54,528.00 960.06,528.00 C960.64,528.00 961.00,609.88 961.00,743.50 L 961.00 959.00 L 744.25 958.94 C600.03,958.89 528.33,958.54 529.98,957.88 ZM 703.42 785.65 C703.14,784.91 705.36,778.05 708.36,770.40 C711.36,762.76 714.13,754.92 714.52,753.00 C715.41,748.52 719.08,739.72 720.45,738.77 C721.03,738.36 723.33,738.02 725.58,738.02 C733.95,737.98 736.05,744.50 731.54,756.49 C725.43,772.72 706.14,792.73 703.42,785.65 ZM 252.29 782.03 C240.08,774.59 226.54,751.61 228.43,741.54 C229.39,736.42 232.13,734.00 236.98,734.00 C241.93,734.00 243.09,735.61 246.07,746.50 C247.27,750.90 249.32,756.92 250.63,759.87 C251.93,762.83 253.00,765.76 253.00,766.37 C253.00,766.99 254.35,770.35 256.00,773.84 C260.71,783.80 259.52,786.44 252.29,782.03 ZM 584.40 778.00 C576.84,776.95 571.00,774.59 571.00,772.59 C571.00,770.49 574.18,768.98 582.98,766.90 C591.96,764.77 594.85,763.98 606.00,760.61 C615.44,757.76 619.07,757.44 622.32,759.16 C629.10,762.78 628.55,770.16 621.22,773.88 C613.97,777.56 595.83,779.59 584.40,778.00 ZM 358.00 774.34 C351.76,773.73 342.56,771.73 339.90,770.40 C336.98,768.95 334.00,764.92 334.00,762.44 C334.00,761.54 335.53,759.27 337.40,757.40 C339.99,754.81 341.65,754.00 344.34,754.00 C346.29,754.00 348.16,754.45 348.50,755.00 C348.84,755.55 350.06,756.00 351.20,756.00 C353.69,756.00 366.77,759.65 369.24,761.03 C370.19,761.56 371.99,762.02 373.24,762.04 C379.75,762.17 390.00,766.64 390.00,769.35 C390.00,773.28 373.50,775.85 358.00,774.34 ZM 636.20 766.23 C633.19,765.73 629.45,758.32 630.36,754.69 C630.72,753.28 633.48,749.06 636.49,745.31 C645.19,734.51 646.37,731.39 646.58,718.50 C646.67,712.45 647.23,706.32 647.81,704.87 C649.62,700.33 658.95,695.21 663.04,696.51 C666.84,697.72 672.91,704.01 673.97,707.85 C676.26,716.09 673.75,735.62 669.58,742.01 C668.32,743.95 667.00,746.42 666.65,747.52 C665.55,751.00 656.70,759.59 651.00,762.72 C645.47,765.76 640.46,766.95 636.20,766.23 ZM 316.71 761.82 C304.82,757.49 292.81,744.72 289.80,733.22 C286.30,719.80 286.16,704.51 289.51,699.69 C293.91,693.37 301.77,691.34 307.76,694.99 C313.49,698.49 314.99,702.23 315.00,713.00 C315.01,718.22 315.47,724.15 316.03,726.18 C317.09,729.99 323.64,740.63 327.60,745.00 C331.15,748.91 332.25,752.72 330.95,756.64 C329.03,762.46 323.73,764.39 316.71,761.82 ZM 726.37 732.01 C724.26,731.16 720.00,726.01 720.00,724.30 C720.00,723.82 718.20,719.01 716.00,713.62 C713.80,708.24 712.00,703.42 712.00,702.92 C712.00,702.41 708.85,695.15 704.99,686.77 L 697.98 671.53 L 700.74 666.01 C704.40,658.69 710.13,655.23 715.59,657.03 C721.49,658.98 725.84,664.64 730.68,676.64 C735.78,689.30 737.77,697.07 739.08,709.45 C740.21,720.17 738.66,726.43 733.85,730.47 C730.64,733.17 729.71,733.36 726.37,732.01 ZM 227.81 726.75 C221.77,721.69 220.67,712.92 223.96,695.94 C226.95,680.54 235.42,660.18 240.50,656.18 C244.49,653.04 251.19,652.35 255.22,654.66 C258.72,656.67 263.00,663.86 263.00,667.72 C263.00,668.98 260.57,675.07 257.60,681.26 C254.62,687.44 249.63,699.47 246.51,708.00 C239.05,728.32 234.80,732.58 227.81,726.75 ZM 419.00 694.65 C407.94,689.03 393.52,680.21 375.50,668.08 C370.37,664.62 344.99,643.81 342.93,641.36 C340.56,638.55 333.42,621.37 331.55,614.00 C330.64,610.42 329.52,606.15 329.05,604.50 C328.57,602.85 327.64,598.35 326.98,594.50 C326.31,590.65 325.37,586.20 324.88,584.60 C324.40,583.01 324.00,579.86 324.00,577.60 C324.00,575.35 323.57,569.90 323.04,565.50 C319.77,538.18 319.74,536.27 322.46,524.33 C325.00,513.11 328.90,505.27 335.56,498.00 C338.22,495.09 343.42,483.54 353.16,458.84 C357.00,449.13 362.08,437.94 364.46,433.96 C370.26,424.26 379.66,416.19 392.00,410.31 C404.85,404.19 409.60,400.15 413.15,392.33 C414.72,388.87 416.00,385.37 416.00,384.55 C416.00,381.22 419.92,376.66 423.94,375.30 C427.48,374.10 428.62,374.13 432.75,375.53 C435.36,376.41 439.52,378.42 442.00,380.00 C444.48,381.58 448.72,383.62 451.43,384.53 C455.68,385.97 457.15,386.03 462.23,384.95 C466.96,383.95 469.15,383.96 473.45,384.99 C476.56,385.73 479.99,385.95 481.65,385.51 C484.71,384.69 488.13,384.62 500.13,385.11 C507.40,385.41 508.05,385.26 513.63,381.82 C530.66,371.37 539.83,373.03 542.08,387.00 C542.64,390.48 543.99,394.58 545.08,396.11 C547.96,400.16 555.05,405.98 557.97,406.70 C563.88,408.15 577.85,416.24 583.05,421.22 C587.59,425.57 589.95,429.26 596.39,442.09 C601.54,452.36 604.39,459.27 604.74,462.34 C605.08,465.36 605.74,467.00 606.63,467.00 C607.38,467.00 608.00,467.50 608.00,468.11 C608.00,470.99 617.86,491.37 623.16,499.45 C626.42,504.43 630.54,511.42 632.30,515.00 C635.35,521.19 635.51,522.14 635.81,535.00 C636.17,550.60 631.59,591.06 628.00,604.00 C624.15,617.87 619.86,630.33 616.98,636.04 C612.94,644.05 599.17,656.36 579.00,670.01 C575.42,672.43 571.60,675.18 570.50,676.12 C567.15,678.98 552.08,688.05 541.34,693.68 L 531.18 699.00 L 479.34 698.99 L 427.50 698.97 L 419.00 694.65 ZM 644.17 692.50 C642.34,691.69 637.99,688.43 634.51,685.26 C631.04,682.09 624.07,677.25 619.03,674.50 C604.54,666.59 604.96,667.20 610.85,662.41 C626.71,649.51 634.80,633.24 641.37,601.00 C642.78,594.09 644.29,584.23 647.10,563.50 C648.31,554.56 647.81,530.92 646.27,524.00 C645.71,521.53 644.53,517.83 643.63,515.78 C642.73,513.74 642.00,511.41 642.00,510.60 C642.00,508.76 649.68,505.25 662.50,501.23 C678.64,496.17 682.95,495.03 690.08,493.92 C699.24,492.50 703.20,493.71 709.87,499.97 C714.97,504.76 715.19,505.17 714.53,508.75 C713.46,514.52 710.53,518.42 702.24,525.15 C692.22,533.27 686.99,536.15 662.50,547.04 L 657.50 549.27 L 661.51 550.50 C663.72,551.18 673.85,552.72 684.01,553.93 C704.17,556.32 711.41,557.96 715.30,561.02 C720.77,565.33 723.65,576.29 720.89,582.35 C719.58,585.22 711.78,589.27 702.79,591.76 C697.82,593.13 692.47,593.50 677.35,593.50 L 658.21 593.50 L 667.35 598.00 C688.91,608.61 709.00,630.14 709.00,642.64 C709.00,646.38 705.75,651.15 700.25,655.45 C696.14,658.67 694.95,659.12 691.45,658.73 C686.60,658.20 676.93,653.72 668.00,647.87 C661.74,643.77 646.96,637.05 644.13,637.02 C643.37,637.01 645.70,640.12 649.31,643.94 C656.80,651.88 664.89,666.82 665.72,674.25 C666.70,682.93 663.25,688.49 655.00,691.49 C648.02,694.04 647.71,694.07 644.17,692.50 ZM 307.00 687.86 C298.91,684.94 296.73,682.36 296.20,675.12 C295.45,664.78 302.34,650.55 313.81,638.75 C317.83,634.61 318.14,634.00 316.24,634.00 C315.04,634.00 311.51,635.12 308.40,636.50 C305.29,637.88 302.39,639.00 301.96,639.00 C301.52,639.00 297.77,641.27 293.63,644.04 C284.39,650.22 274.08,655.00 269.98,655.00 C263.79,655.00 256.43,649.62 253.68,643.10 C250.85,636.37 256.26,624.71 267.22,613.91 C274.88,606.37 287.55,597.13 294.75,593.84 C298.19,592.27 301.00,590.65 301.00,590.24 C301.00,589.83 292.79,589.50 282.75,589.50 C263.31,589.50 256.54,588.41 247.25,583.77 C241.79,581.04 240.91,579.95 239.96,574.77 C238.90,569.00 241.92,561.03 246.64,557.15 C250.28,554.15 249.94,554.22 281.00,549.93 C297.60,547.64 302.48,546.83 303.68,546.16 C304.52,545.69 301.62,544.00 295.75,541.55 C281.49,535.58 267.84,528.54 263.36,524.85 C261.12,523.01 257.63,520.15 255.60,518.50 C251.26,514.98 248.48,510.77 247.53,506.27 C246.93,503.44 247.39,502.40 251.16,497.92 C253.54,495.11 256.70,492.17 258.19,491.40 C261.72,489.58 270.94,489.67 278.50,491.61 C281.80,492.45 286.34,493.54 288.59,494.01 C290.84,494.49 294.21,495.54 296.09,496.34 C301.91,498.83 314.95,502.38 315.66,501.68 C316.03,501.31 314.45,498.87 312.15,496.25 C293.33,474.84 290.80,471.34 282.02,454.50 C270.46,432.32 269.40,430.70 262.63,424.95 C255.11,418.54 250.67,411.09 245.98,397.00 C236.69,369.09 235.35,331.20 242.64,303.00 C244.00,297.77 245.76,290.80 246.57,287.50 C248.53,279.47 249.22,277.76 257.13,261.45 C260.87,253.73 265.45,245.40 267.29,242.95 C269.13,240.50 273.31,234.90 276.57,230.50 C284.69,219.56 301.42,202.50 309.68,196.75 C313.43,194.14 321.00,189.12 326.50,185.58 C332.00,182.04 337.73,178.19 339.24,177.01 C342.17,174.72 344.00,175.04 344.00,177.85 C344.00,178.80 342.40,183.38 340.44,188.04 C338.48,192.69 333.53,204.97 329.45,215.31 C322.60,232.66 321.72,235.78 318.07,255.38 C314.49,274.61 312.71,293.04 314.29,294.62 C315.03,295.36 326.78,288.42 335.50,282.08 C347.88,273.08 353.68,267.77 365.59,254.50 C377.65,241.07 382.18,234.74 390.54,219.70 C394.85,211.95 395.72,210.94 397.93,211.20 C400.12,211.46 400.59,212.25 401.69,217.50 C404.43,230.61 404.41,239.56 401.60,254.17 C399.19,266.70 398.42,268.91 392.32,280.67 C385.35,294.11 379.42,301.90 363.79,318.10 C359.23,322.82 353.70,327.82 351.50,329.20 C349.30,330.59 344.53,334.14 340.90,337.11 C337.28,340.07 331.07,344.30 327.12,346.50 L 319.93 350.50 L 320.55 354.50 C320.89,356.70 321.81,361.65 322.58,365.50 C323.36,369.36 324.00,378.23 324.00,385.29 C324.00,395.67 323.59,399.35 321.84,404.79 C319.76,411.22 316.83,417.44 314.91,419.45 C313.34,421.09 313.82,421.68 321.25,427.13 C329.74,433.37 341.75,443.32 344.25,446.20 C346.97,449.34 346.36,453.41 340.88,468.50 C338.08,476.20 335.32,483.96 334.73,485.75 C334.15,487.53 330.99,492.15 327.73,496.00 C323.18,501.36 321.17,503.01 319.15,503.03 L 316.50 503.07 L 318.62 504.84 L 320.74 506.61 L 318.46 511.09 C312.96,521.92 312.44,544.10 316.95,575.78 C320.19,598.53 321.81,606.50 325.62,618.44 C331.23,636.03 336.55,644.98 347.77,655.71 C354.12,661.77 355.12,663.16 354.07,664.42 C353.38,665.25 351.85,666.22 350.66,666.59 C347.99,667.41 335.43,674.67 331.87,677.45 C330.43,678.58 326.83,681.58 323.87,684.13 C317.32,689.78 314.22,690.47 307.00,687.86 ZM 730.19 569.65 C726.99,567.87 724.01,563.06 724.01,559.65 C724.00,556.80 727.36,551.00 729.02,551.00 C729.51,551.00 732.13,549.69 734.83,548.10 C737.54,546.50 742.40,543.75 745.63,541.98 C748.86,540.20 755.24,536.22 759.81,533.13 C775.11,522.77 777.06,521.67 780.04,521.67 C784.36,521.67 788.01,525.46 787.98,529.92 C787.91,541.30 772.82,555.86 748.50,568.00 C741.92,571.29 734.37,571.97 730.19,569.65 ZM 218.00 566.08 C205.05,560.82 196.56,555.50 186.20,546.19 C176.94,537.86 174.00,533.16 174.00,526.71 C174.00,521.42 177.02,518.00 181.69,518.00 C184.81,518.00 197.15,525.33 203.78,531.13 C205.59,532.71 207.47,534.00 207.96,534.00 C208.81,534.00 219.57,539.77 227.18,544.31 C232.84,547.68 238.00,552.83 238.00,555.10 C238.00,558.74 233.14,565.76 229.80,566.92 C225.59,568.39 223.28,568.22 218.00,566.08 ZM 788.38 517.39 C784.50,515.43 782.00,512.29 782.00,509.36 C782.00,508.03 783.28,504.37 784.84,501.22 C787.61,495.65 789.70,489.83 794.05,475.53 C797.15,465.33 798.16,463.67 800.31,465.24 C801.58,466.17 802.33,469.03 803.13,476.00 C804.35,486.74 803.87,494.61 801.42,504.38 C798.55,515.82 794.08,520.27 788.38,517.39 ZM 167.10 513.74 C164.39,512.34 160.91,504.68 158.96,495.80 C157.26,488.06 158.18,465.40 160.28,463.29 C161.58,461.99 162.05,462.21 164.26,465.16 C165.64,467.00 167.97,472.72 169.44,477.88 C170.91,483.05 173.89,490.80 176.06,495.11 C178.23,499.43 180.00,503.66 180.00,504.53 C180.00,507.44 176.99,511.95 174.03,513.48 C170.51,515.30 170.17,515.32 167.10,513.74 ZM 635.82 501.75 C629.78,494.59 627.01,490.50 626.01,487.25 C625.55,485.74 622.84,477.98 619.99,470.00 C617.15,462.02 614.59,454.56 614.32,453.41 C613.91,451.68 616.64,449.16 630.39,438.60 C639.51,431.60 647.19,425.50 647.47,425.05 C647.75,424.60 647.08,423.10 645.99,421.71 C644.89,420.32 644.00,418.67 644.00,418.04 C644.00,417.41 643.23,415.46 642.29,413.70 C638.59,406.79 638.03,403.55 638.04,389.00 C638.04,381.02 638.45,372.70 638.95,370.50 C639.44,368.30 640.13,363.58 640.48,360.00 L 641.11 353.50 L 633.82 349.60 C626.31,345.59 613.58,335.95 612.67,333.59 C612.39,332.86 610.21,331.31 607.81,330.15 C604.88,328.73 599.25,323.47 590.48,313.94 C578.45,300.87 576.96,298.80 570.11,285.67 C563.48,272.95 562.48,270.27 560.36,259.55 C557.64,245.78 557.42,237.14 559.45,224.58 C561.64,211.14 563.80,210.37 569.40,221.00 C575.86,233.27 583.58,244.26 593.40,255.15 C601.65,264.31 613.78,276.30 619.54,281.00 C627.58,287.55 644.43,298.00 646.96,298.00 C649.32,298.00 646.72,269.83 643.00,255.00 C642.52,253.07 641.60,248.57 640.97,245.00 C639.88,238.86 637.44,231.69 630.92,215.50 C624.28,199.01 619.82,188.22 617.97,184.22 C616.29,180.57 616.21,179.86 617.47,179.37 C618.28,179.06 620.14,179.75 621.61,180.90 C623.07,182.06 624.63,183.00 625.07,183.00 C625.51,183.00 630.00,185.81 635.05,189.25 C640.09,192.69 646.25,196.60 648.73,197.95 C651.21,199.29 658.97,206.04 665.97,212.95 C692.97,239.57 706.44,261.77 716.02,295.50 C727.26,335.02 726.67,368.19 714.07,405.31 C710.11,417.01 708.16,420.04 698.58,429.50 C691.06,436.92 689.82,438.77 681.50,454.99 C676.56,464.61 671.38,473.83 670.00,475.49 C668.61,477.14 665.23,481.42 662.50,485.00 C656.38,493.00 642.95,507.00 641.39,507.00 C640.76,507.00 638.25,504.64 635.82,501.75 ZM 718.51 498.79 C712.88,495.52 710.35,489.82 711.41,482.77 C711.94,479.21 713.55,476.35 718.64,469.85 C722.24,465.26 728.47,456.53 732.49,450.46 C740.96,437.67 746.62,432.00 750.93,432.00 C754.97,432.00 760.00,436.39 760.00,439.93 C760.00,448.53 751.97,469.26 744.21,480.69 C738.86,488.57 731.45,497.18 728.71,498.70 C725.93,500.25 721.10,500.29 718.51,498.79 ZM 232.36 494.08 C228.85,491.94 219.95,481.17 215.28,473.42 C213.60,470.62 210.54,464.55 208.49,459.92 C201.60,444.39 200.11,434.37 204.18,430.84 C211.30,424.67 216.63,428.03 229.00,446.50 C231.94,450.90 237.91,459.19 242.25,464.92 C248.08,472.62 250.00,475.88 249.59,477.42 C249.28,478.56 249.02,481.42 249.01,483.76 C249.00,487.30 248.37,488.70 245.25,492.01 C240.94,496.60 237.42,497.16 232.36,494.08 ZM 0.06 219.25 L 0.00 0.00 L 219.75 0.04 C413.36,0.07 439.10,0.25 436.14,1.54 C434.28,2.34 431.42,3.00 429.77,3.00 C425.38,3.00 400.38,6.76 386.50,9.51 C341.80,18.38 297.40,33.99 258.00,54.70 C244.19,61.96 218.56,77.19 210.00,83.22 C206.98,85.35 202.02,88.75 199.00,90.77 C193.11,94.70 180.48,104.70 167.50,115.69 C158.20,123.57 125.39,156.22 116.19,166.75 C104.41,180.26 87.15,203.49 76.64,220.00 C37.68,281.25 14.23,344.89 4.62,415.50 C3.27,425.40 1.71,434.62 1.15,436.00 C0.45,437.71 0.11,369.34 0.06,219.25 ZM 959.58 432.14 C959.29,431.66 958.58,427.05 958.01,421.89 C956.78,410.87 956.21,406.94 955.04,401.50 C954.57,399.30 953.66,394.35 953.02,390.50 C951.94,383.96 948.94,370.34 947.06,363.50 C946.61,361.85 945.21,356.67 943.95,352.00 C939.36,334.93 927.93,301.70 924.01,294.01 C922.90,291.85 922.00,289.62 922.00,289.05 C922.00,287.95 906.85,256.91 902.21,248.50 C891.38,228.87 871.61,198.78 860.80,185.50 C829.74,147.31 801.98,120.15 768.50,95.19 C701.66,45.35 622.73,13.93 538.50,3.61 C531.90,2.80 525.38,1.69 524.00,1.13 C522.31,0.45 592.62,0.11 741.25,0.06 L 961.00 0.00 L 961.00 216.50 C961.00,335.58 960.80,433.00 960.56,433.00 C960.32,433.00 959.88,432.61 959.58,432.14 ZM 752.05 425.34 C748.86,421.29 749.48,412.49 753.47,405.00 C754.21,403.62 754.81,400.82 754.80,398.77 C754.80,395.40 755.63,391.94 759.44,379.50 C761.00,374.42 763.15,374.00 766.14,378.20 C768.37,381.31 768.50,382.35 768.50,396.50 C768.50,422.06 767.17,426.28 758.80,427.35 C754.57,427.89 753.90,427.69 752.05,425.34 ZM 198.71 422.98 C194.52,419.69 193.65,415.10 193.57,396.00 C193.49,376.69 194.01,373.30 197.25,372.10 C200.44,370.92 201.31,372.31 204.32,383.50 C213.03,415.85 213.29,417.87 209.18,421.98 C205.65,425.51 202.32,425.83 198.71,422.98 Z" fill="rgb(253,254,254)"/>
</g>
</svg>