<svg xmlns="http://www.w3.org/2000/svg" width="961" height="959" viewBox="0 0 961 959">
<g>
<path d="M 454.50 958.39 C426.83,956.62 396.24,952.15 371.50,946.27 C363.25,944.31 354.90,942.60 352.95,942.46 C352.57,942.44 352.02,942.35 351.34,942.23 C351.84,941.89 355.24,935.33 358.93,927.57 C366.63,911.41 375.99,894.75 383.15,884.50 C388.18,877.28 389.60,874.83 391.45,874.45 C392.63,874.21 393.99,874.81 396.57,875.56 C406.08,878.33 420.62,876.00 434.86,869.42 C455.48,859.91 470.93,849.31 497.87,826.19 C509.79,815.95 512.44,814.18 522.37,809.78 C539.69,802.11 549.76,798.31 573.50,790.45 C585.60,786.45 594.48,783.13 593.23,783.09 C589.00,782.93 548.47,793.81 531.94,799.55 C514.16,805.72 513.08,805.95 487.00,809.03 C472.93,810.69 450.58,814.65 432.17,818.75 C430.31,819.16 431.81,816.70 439.67,806.42 C445.08,799.35 453.60,789.29 458.62,784.06 L 467.74 774.55 L 473.24 777.24 C481.00,781.04 487.03,782.19 498.39,782.04 C509.23,781.90 522.38,778.80 537.50,772.83 C548.60,768.44 573.66,755.86 583.39,749.79 C590.00,745.67 593.45,744.29 602.00,742.32 C613.20,739.75 632.34,736.83 653.36,734.50 C660.46,733.71 666.55,732.77 666.88,732.40 C668.12,731.07 632.98,732.91 614.50,735.14 C592.69,737.78 587.67,737.88 572.50,736.03 C566.16,735.26 550.64,734.65 535.84,734.60 C513.11,734.53 510.28,734.34 511.01,732.98 C513.08,729.11 530.03,714.21 535.89,711.11 L 542.28 707.73 L 545.39 711.24 C559.30,726.93 593.83,724.89 642.00,705.53 C655.44,700.13 655.57,700.10 671.50,698.95 C680.30,698.32 696.24,697.84 706.91,697.90 C717.59,697.95 726.04,697.71 725.69,697.36 C724.36,696.03 696.69,693.86 677.00,693.54 C659.05,693.25 655.19,692.89 646.00,690.63 C628.14,686.25 594.59,681.24 581.55,681.02 C580.10,680.99 596.53,670.89 609.09,664.08 C615.27,660.74 620.60,658.00 620.94,658.00 C621.29,658.00 622.35,659.32 623.30,660.93 C630.04,672.34 648.40,676.91 673.93,673.53 C690.13,671.39 706.88,667.72 714.94,664.54 C719.70,662.66 723.22,662.00 728.44,662.01 C736.33,662.02 757.33,664.22 772.31,666.60 C777.73,667.46 782.40,667.94 782.68,667.66 C784.00,666.33 756.63,660.67 736.50,658.11 C724.10,656.53 718.29,655.16 703.00,650.22 C692.83,646.93 678.99,643.17 672.26,641.87 C665.52,640.57 660.01,639.26 660.01,638.97 C659.99,637.50 698.57,622.39 709.91,619.44 L 715.33 618.02 L 718.73 621.99 C724.58,628.84 729.32,630.35 745.00,630.36 C754.53,630.37 762.04,629.74 770.54,628.21 C783.57,625.86 788.91,626.05 806.84,629.51 C811.42,630.39 815.70,630.93 816.34,630.71 C817.75,630.22 797.85,625.46 788.01,623.93 C783.90,623.30 776.76,621.02 771.08,618.54 C761.01,614.13 757.70,612.94 750.15,610.99 C747.76,610.37 745.98,609.68 746.21,609.45 C747.63,608.04 773.64,602.54 790.92,599.99 C811.34,596.99 818.70,595.21 805.50,596.47 C789.72,597.98 765.83,601.08 755.50,602.96 C741.15,605.58 741.09,605.58 744.18,602.25 C748.11,598.02 753.38,589.20 760.64,574.72 C764.28,567.45 769.16,559.03 771.49,556.01 C776.01,550.12 786.92,533.97 788.88,530.25 C790.96,526.31 788.61,527.84 785.79,532.25 C784.30,534.59 779.86,540.55 775.92,545.50 C769.82,553.18 767.28,555.44 758.63,560.90 C753.06,564.42 747.15,568.40 745.50,569.74 C738.64,575.31 729.66,584.75 727.84,588.32 C725.07,593.74 724.39,600.93 726.31,604.63 L 727.85 607.61 L 708.67 612.97 C698.13,615.92 684.36,620.06 678.07,622.16 C671.79,624.26 666.45,625.78 666.20,625.54 C665.96,625.29 667.08,623.38 668.70,621.30 C676.35,611.40 684.39,595.07 694.46,568.93 C697.67,560.61 701.62,552.49 704.69,547.93 C717.99,528.15 730.90,505.57 729.63,504.30 C729.36,504.03 728.25,505.54 727.17,507.65 C725.12,511.64 707.04,537.25 698.78,547.86 C695.32,552.31 691.32,555.70 683.79,560.59 C669.26,570.01 663.79,574.42 653.15,585.29 C642.33,596.33 638.41,601.85 634.68,611.26 C631.18,620.09 631.12,626.65 634.50,632.41 L 637.00 636.67 L 615.33 646.83 C603.41,652.42 593.48,656.81 593.26,656.59 C593.04,656.38 594.89,651.54 597.36,645.85 C604.09,630.34 609.58,613.58 613.59,596.32 C616.90,582.06 617.83,579.60 625.51,564.68 C633.90,548.38 645.58,521.24 644.61,520.28 C644.33,519.99 640.32,527.35 635.70,536.63 C624.82,558.52 613.82,576.84 609.66,580.00 C589.09,595.64 562.50,625.04 555.38,640.02 C548.90,653.67 548.14,668.45 553.60,674.94 L 556.08 677.88 L 553.29 679.93 C540.84,689.05 514.44,706.68 514.20,706.03 C514.04,705.59 515.01,701.23 516.36,696.36 C519.31,685.71 523.18,664.31 526.09,642.50 C527.80,629.73 529.12,623.97 532.63,614.00 C541.12,589.87 551.76,552.00 550.04,552.00 C549.67,552.00 546.53,560.21 543.06,570.25 C539.59,580.29 533.37,596.47 529.23,606.21 L 521.71 623.91 L 510.39 636.51 C492.73,656.16 482.35,671.05 474.56,687.86 C466.79,704.65 464.69,712.52 465.16,723.05 C465.45,729.54 465.95,731.29 468.71,735.53 L 471.92 740.47 L 446.21 766.48 C432.07,780.79 420.09,792.67 419.59,792.89 C419.07,793.11 418.96,790.99 419.34,787.89 C421.26,771.94 422.17,747.39 421.60,727.00 C421.01,705.72 418.64,683.00 417.02,683.00 C415.27,683.00 399.57,707.83 391.73,723.00 C385.02,735.96 381.79,743.79 376.66,759.50 C370.57,778.13 370.07,780.33 369.43,791.61 C368.74,803.58 368.77,803.82 372.02,812.90 C374.85,820.81 375.99,822.71 380.26,826.54 C382.99,829.00 385.67,831.00 386.22,831.00 C387.99,831.00 386.24,833.84 370.44,856.57 C351.96,883.16 323.29,929.10 322.27,933.58 C321.70,933.32 321.42,933.13 321.48,933.03 C321.71,932.66 313.71,929.14 303.70,925.21 C283.51,917.28 255.83,903.88 237.50,893.16 C226.30,886.60 225.45,886.27 224.75,888.17 C223.99,890.19 223.99,890.19 220.75,888.08 C218.96,886.92 213.32,883.39 208.21,880.23 C205.06,878.30 202.98,876.99 201.63,875.99 C203.84,877.37 208.05,880.02 212.50,882.86 C218.55,886.71 223.83,889.54 224.23,889.15 C224.63,888.76 226.78,878.67 229.00,866.73 C234.04,839.69 255.57,748.10 257.30,746.37 C257.57,746.10 261.03,746.86 265.00,748.07 C274.09,750.83 288.13,750.40 297.50,747.07 C305.63,744.18 320.16,735.38 329.13,727.91 C345.55,714.22 366.14,689.76 382.49,664.50 C392.09,649.68 404.87,628.22 411.15,616.37 L 417.05 605.24 L 434.27 589.73 C443.75,581.20 456.23,570.44 462.00,565.82 C479.53,551.81 494.09,540.56 502.36,534.63 C510.80,528.58 510.95,526.94 502.59,532.20 C471.58,551.68 428.92,582.63 412.00,597.93 C408.08,601.47 402.91,604.54 394.00,608.61 C346.69,630.20 303.38,655.07 281.75,673.07 C279.69,674.79 278.00,675.67 278.00,675.03 C278.00,673.24 300.19,607.63 301.17,606.54 C301.71,605.93 303.78,606.26 306.76,607.41 C330.07,616.44 359.63,603.48 387.26,572.11 C402.48,554.82 427.53,518.35 440.42,494.71 C444.72,486.81 446.61,484.68 461.32,471.14 C483.58,450.66 501.34,435.97 521.28,421.53 C527.21,417.24 531.83,413.50 531.55,413.22 C529.91,411.57 469.44,453.29 450.60,469.07 C441.25,476.90 437.99,478.95 427.60,483.51 C391.01,499.58 355.85,518.73 335.00,533.94 C326.06,540.47 325.82,540.58 326.91,537.81 C329.98,529.96 349.28,486.34 349.99,485.62 C350.50,485.10 352.51,485.39 354.77,486.29 C356.92,487.15 361.49,488.36 364.93,488.99 C370.39,489.98 372.34,489.85 380.25,487.99 C396.99,484.07 407.79,477.19 426.58,458.51 C441.56,443.61 464.09,413.40 477.29,390.50 C480.97,384.12 483.78,380.88 491.20,374.46 C510.29,357.95 533.97,340.18 554.44,327.00 C559.13,323.98 562.98,321.13 562.99,320.68 C563.00,319.72 556.87,323.12 538.00,334.51 C514.75,348.55 508.39,352.72 492.73,364.24 C478.28,374.87 476.56,375.83 459.00,383.06 C426.22,396.56 401.83,408.66 386.25,419.17 C382.26,421.86 379.00,423.81 379.00,423.51 C379.00,423.04 408.83,365.85 409.36,365.31 C409.47,365.20 412.45,366.55 416.01,368.31 C421.91,371.23 423.23,371.49 431.48,371.38 C439.27,371.28 441.41,370.85 447.17,368.21 C469.75,357.87 493.69,331.19 517.00,290.38 C523.28,279.38 527.07,273.97 531.50,269.65 C542.86,258.57 572.24,234.90 586.83,225.08 C597.45,217.93 593.01,219.46 579.37,227.64 C564.08,236.83 541.65,252.38 528.77,262.74 C523.67,266.83 518.83,270.44 518.00,270.76 C517.17,271.07 508.38,275.00 498.47,279.49 C481.21,287.30 460.69,298.33 447.18,307.06 C442.71,309.94 441.15,310.58 441.88,309.22 C443.41,306.36 470.99,263.63 471.90,262.71 C472.33,262.28 474.94,263.44 477.71,265.31 C485.64,270.64 496.47,270.95 508.51,266.20 C526.34,259.15 552.72,232.70 573.83,200.70 C580.94,189.91 586.14,185.70 620.71,162.70 C632.38,154.94 641.76,148.42 641.55,148.22 C640.43,147.10 604.69,166.64 591.15,175.78 C578.01,184.65 573.50,187.09 563.00,191.03 C539.29,199.93 521.80,207.86 508.07,215.96 C505.15,217.68 502.58,218.91 502.35,218.69 C501.93,218.26 543.63,162.69 550.12,155.04 C552.20,152.58 553.72,150.39 553.50,150.17 C553.28,149.95 550.24,151.37 546.73,153.33 C541.05,156.51 538.00,159.70 518.43,182.88 C506.37,197.17 496.22,208.90 495.88,208.93 C495.53,208.97 495.01,202.59 494.71,194.75 C494.39,186.14 493.37,176.79 492.14,171.13 C489.03,156.78 481.22,129.69 476.99,118.52 C473.52,109.39 473.01,106.69 471.15,88.00 C469.48,71.22 464.53,41.14 462.44,35.11 C461.04,31.09 461.23,36.24 462.97,50.07 C464.04,58.56 465.39,74.81 465.97,86.18 L 467.04 106.86 L 464.46 113.68 C461.32,121.99 454.42,154.28 452.42,170.00 C449.96,189.32 452.52,209.40 458.72,219.43 C462.50,225.54 467.70,230.57 472.35,232.59 C474.63,233.58 476.66,234.50 476.86,234.64 C477.28,234.93 432.16,298.78 431.04,299.47 C430.63,299.73 429.97,295.41 429.59,289.87 C428.01,266.99 419.51,238.88 401.49,197.00 C396.71,185.90 394.97,180.51 394.06,174.00 C391.57,156.26 379.64,106.40 376.83,102.00 C375.70,100.24 375.96,101.98 378.89,116.00 C384.09,140.81 388.71,179.48 387.69,189.50 C387.40,192.25 385.81,201.02 384.15,209.00 C379.48,231.36 378.00,245.23 378.00,266.62 C378.00,288.04 379.17,296.42 383.71,307.50 C388.06,318.12 393.18,324.11 401.50,328.31 C405.35,330.26 409.02,332.00 409.66,332.18 C410.66,332.45 375.76,393.64 373.08,396.32 C372.52,396.88 371.93,395.34 371.56,392.37 C368.09,364.09 358.24,329.72 342.38,290.56 C338.48,280.95 337.65,277.54 336.03,264.50 C332.55,236.55 320.20,178.00 317.79,178.00 C317.33,178.00 317.19,179.01 317.47,180.25 C317.76,181.49 319.32,190.60 320.94,200.50 C324.22,220.46 325.31,229.90 327.45,256.72 L 328.90 274.93 L 326.46 283.34 C316.59,317.40 311.43,352.17 312.27,379.00 C312.90,398.91 315.08,408.71 321.54,420.59 C327.74,432.02 335.07,438.21 347.27,442.35 C348.81,442.87 347.92,445.17 340.38,460.23 C335.62,469.73 329.73,481.77 327.30,487.00 C324.14,493.77 322.64,496.07 322.08,495.00 C321.64,494.17 319.80,487.42 317.98,480.00 C313.00,459.59 298.39,420.31 285.09,391.55 C282.07,385.04 280.39,379.46 278.89,371.05 C272.52,335.34 258.04,276.94 254.70,273.50 C254.07,272.85 253.95,273.37 254.36,275.00 C260.29,298.43 267.44,338.35 270.55,365.39 C272.11,378.93 272.10,379.51 270.07,387.89 C268.93,392.63 267.11,401.23 266.03,407.00 C255.09,465.78 254.27,498.46 262.99,528.97 C267.81,545.82 275.43,556.98 286.99,564.09 C289.81,565.82 291.92,567.75 291.67,568.37 C291.42,568.99 287.53,578.95 283.02,590.50 C278.51,602.05 274.48,612.11 274.05,612.87 C273.58,613.72 272.43,610.68 271.04,604.87 C264.65,578.25 249.56,536.84 234.50,504.59 C226.86,488.21 224.82,482.84 223.49,475.50 C220.21,457.45 211.79,421.55 206.54,403.25 C199.55,378.86 194.98,364.69 194.33,365.34 C194.04,365.63 195.17,371.18 196.85,377.68 C203.84,404.85 209.72,435.79 213.48,465.27 L 216.00 485.03 L 211.43 507.77 C197.04,579.44 197.74,630.72 213.56,663.68 C217.36,671.59 219.49,674.59 225.45,680.41 C231.24,686.06 234.06,688.00 239.36,689.97 C243.01,691.32 246.00,692.95 246.00,693.57 C246.00,694.20 242.44,706.82 238.08,721.61 C223.49,771.18 220.15,783.35 213.15,812.50 C202.01,858.85 199.28,870.81 199.60,874.00 C199.18,873.25 199.22,872.53 199.39,871.50 C199.83,868.73 199.29,868.08 192.30,863.00 C169.81,846.65 138.27,817.41 118.43,794.51 C89.85,761.52 70.02,731.82 50.57,692.91 C2.94,597.60 -11.42,490.02 9.54,385.50 C34.77,259.64 109.49,149.20 217.12,78.68 C339.62,-1.58 492.69,-21.54 631.82,24.60 C795.67,78.94 917.60,216.61 951.46,385.50 C968.24,469.17 962.46,554.43 934.51,635.80 C900.68,734.26 834.86,819.56 747.71,877.86 C682.57,921.43 608.68,948.01 529.00,956.52 C515.18,958.00 467.22,959.20 454.50,958.39 Z" fill="rgba(254,113,50,1)"/>
<path d="M 337.00 938.53 C329.58,936.24 322.96,934.17 322.30,933.93 C320.65,933.33 351.12,884.37 370.44,856.57 C386.24,833.84 387.99,831.00 386.22,831.00 C385.67,831.00 382.99,829.00 380.26,826.54 C375.99,822.71 374.85,820.81 372.02,812.90 C368.77,803.82 368.74,803.58 369.43,791.61 C370.07,780.33 370.57,778.13 376.66,759.50 C381.79,743.79 385.02,735.96 391.73,723.00 C399.57,707.83 415.27,683.00 417.02,683.00 C418.64,683.00 421.01,705.72 421.60,727.00 C422.17,747.39 421.26,771.94 419.34,787.89 C418.96,790.99 419.07,793.11 419.59,792.89 C420.09,792.67 432.07,780.79 446.21,766.48 L 471.92 740.47 L 468.71 735.53 C465.95,731.29 465.45,729.54 465.16,723.05 C464.69,712.52 466.79,704.65 474.56,687.86 C482.35,671.05 492.73,656.16 510.39,636.51 L 521.71 623.91 L 529.23 606.21 C533.37,596.47 539.59,580.29 543.06,570.25 C546.53,560.21 549.67,552.00 550.04,552.00 C551.76,552.00 541.12,589.87 532.63,614.00 C529.12,623.97 527.80,629.73 526.09,642.50 C523.18,664.31 519.31,685.71 516.36,696.36 C515.01,701.23 514.04,705.59 514.20,706.03 C514.44,706.68 540.84,689.05 553.29,679.93 L 556.08 677.88 L 553.60 674.94 C548.14,668.45 548.90,653.67 555.38,640.02 C562.50,625.04 589.09,595.64 609.66,580.00 C613.82,576.84 624.82,558.52 635.70,536.63 C640.32,527.35 644.33,519.99 644.61,520.28 C645.58,521.24 633.90,548.38 625.51,564.68 C617.83,579.60 616.90,582.06 613.59,596.32 C609.58,613.58 604.09,630.34 597.36,645.85 C594.89,651.54 593.04,656.38 593.26,656.59 C593.48,656.81 603.41,652.42 615.33,646.83 L 637.00 636.67 L 634.50 632.41 C631.12,626.65 631.18,620.09 634.68,611.26 C638.41,601.85 642.33,596.33 653.15,585.29 C663.79,574.42 669.26,570.01 683.79,560.59 C691.32,555.70 695.32,552.31 698.78,547.86 C707.04,537.25 725.12,511.64 727.17,507.65 C728.25,505.54 729.36,504.03 729.63,504.30 C730.90,505.57 717.99,528.15 704.69,547.93 C701.62,552.49 697.67,560.61 694.46,568.93 C684.39,595.07 676.35,611.40 668.70,621.30 C667.08,623.38 665.96,625.29 666.20,625.54 C666.45,625.78 671.79,624.26 678.07,622.16 C684.36,620.06 698.13,615.92 708.67,612.97 L 727.85 607.61 L 726.31 604.63 C724.39,600.93 725.07,593.74 727.84,588.32 C729.66,584.75 738.64,575.31 745.50,569.74 C747.15,568.40 753.06,564.42 758.63,560.90 C767.28,555.44 769.82,553.18 775.92,545.50 C779.86,540.55 784.30,534.59 785.79,532.25 C788.61,527.84 790.96,526.31 788.88,530.25 C786.92,533.97 776.01,550.12 771.49,556.01 C769.16,559.03 764.28,567.45 760.64,574.72 C753.38,589.20 748.11,598.02 744.18,602.25 C741.09,605.58 741.15,605.58 755.50,602.96 C765.83,601.08 789.72,597.98 805.50,596.47 C818.70,595.21 811.34,596.99 790.92,599.99 C773.64,602.54 747.63,608.04 746.21,609.45 C745.98,609.68 747.76,610.37 750.15,610.99 C757.70,612.94 761.01,614.13 771.08,618.54 C776.76,621.02 783.90,623.30 788.01,623.93 C797.85,625.46 817.75,630.22 816.34,630.71 C815.70,630.93 811.42,630.39 806.84,629.51 C788.91,626.05 783.57,625.86 770.54,628.21 C762.04,629.74 754.53,630.37 745.00,630.36 C729.32,630.35 724.58,628.84 718.73,621.99 L 715.33 618.02 L 709.91 619.44 C698.57,622.39 659.99,637.50 660.01,638.97 C660.01,639.26 665.52,640.57 672.26,641.87 C678.99,643.17 692.83,646.93 703.00,650.22 C718.29,655.16 724.10,656.53 736.50,658.11 C756.63,660.67 784.00,666.33 782.68,667.66 C782.40,667.94 777.73,667.46 772.31,666.60 C757.33,664.22 736.33,662.02 728.44,662.01 C723.22,662.00 719.70,662.66 714.94,664.54 C706.88,667.72 690.13,671.39 673.93,673.53 C648.40,676.91 630.04,672.34 623.30,660.93 C622.35,659.32 621.29,658.00 620.94,658.00 C620.60,658.00 615.27,660.74 609.09,664.08 C596.53,670.89 580.10,680.99 581.55,681.02 C594.59,681.24 628.14,686.25 646.00,690.63 C655.19,692.89 659.05,693.25 677.00,693.54 C696.69,693.86 724.36,696.03 725.69,697.36 C726.04,697.71 717.59,697.95 706.91,697.90 C696.24,697.84 680.30,698.32 671.50,698.95 C655.57,700.10 655.44,700.13 642.00,705.53 C593.83,724.89 559.30,726.93 545.39,711.24 L 542.28 707.73 L 535.89 711.11 C530.03,714.21 513.08,729.11 511.01,732.98 C510.28,734.34 513.11,734.53 535.84,734.60 C550.64,734.65 566.16,735.26 572.50,736.03 C587.67,737.88 592.69,737.78 614.50,735.14 C632.98,732.91 668.12,731.07 666.88,732.40 C666.55,732.77 660.46,733.71 653.36,734.50 C632.34,736.83 613.20,739.75 602.00,742.32 C593.45,744.29 590.00,745.67 583.39,749.79 C573.66,755.86 548.60,768.44 537.50,772.83 C522.38,778.80 509.23,781.90 498.39,782.04 C487.03,782.19 481.00,781.04 473.24,777.24 L 467.74 774.55 L 458.62 784.06 C453.60,789.29 445.08,799.35 439.67,806.42 C431.81,816.70 430.31,819.16 432.17,818.75 C450.58,814.65 472.93,810.69 487.00,809.03 C513.08,805.95 514.16,805.72 531.94,799.55 C548.47,793.81 589.00,782.93 593.23,783.09 C594.48,783.13 585.60,786.45 573.50,790.45 C549.76,798.31 539.69,802.11 522.37,809.78 C512.44,814.18 509.79,815.95 497.87,826.19 C470.93,849.31 455.48,859.91 434.86,869.42 C420.62,876.00 406.08,878.33 396.57,875.56 C389.95,873.64 391.40,872.67 383.15,884.50 C375.99,894.75 366.63,911.41 358.93,927.57 C355.21,935.38 351.79,941.98 351.33,942.23 C350.88,942.48 344.42,940.81 337.00,938.53 ZM 212.50 882.86 C206.45,879.01 200.87,875.49 200.09,875.05 C198.53,874.16 199.86,867.82 213.15,812.50 C220.15,783.35 223.49,771.18 238.08,721.61 C242.44,706.82 246.00,694.20 246.00,693.57 C246.00,692.95 243.01,691.32 239.36,689.97 C234.06,688.00 231.24,686.06 225.45,680.41 C219.49,674.59 217.36,671.59 213.56,663.68 C197.74,630.72 197.04,579.44 211.43,507.77 L 216.00 485.03 L 213.48 465.27 C209.72,435.79 203.84,404.85 196.85,377.68 C195.17,371.18 194.04,365.63 194.33,365.34 C194.98,364.69 199.55,378.86 206.54,403.25 C211.79,421.55 220.21,457.45 223.49,475.50 C224.82,482.84 226.86,488.21 234.50,504.59 C249.56,536.84 264.65,578.25 271.04,604.87 C272.43,610.68 273.58,613.72 274.05,612.87 C274.48,612.11 278.51,602.05 283.02,590.50 C287.53,578.95 291.42,568.99 291.67,568.37 C291.92,567.75 289.81,565.82 286.99,564.09 C275.43,556.98 267.81,545.82 262.99,528.97 C254.27,498.46 255.09,465.78 266.03,407.00 C267.11,401.23 268.93,392.63 270.07,387.89 C272.10,379.51 272.11,378.93 270.55,365.39 C267.44,338.35 260.29,298.43 254.36,275.00 C253.95,273.37 254.07,272.85 254.70,273.50 C258.04,276.94 272.52,335.34 278.89,371.05 C280.39,379.46 282.07,385.04 285.09,391.55 C298.39,420.31 313.00,459.59 317.98,480.00 C319.80,487.42 321.64,494.17 322.08,495.00 C322.64,496.07 324.14,493.77 327.30,487.00 C329.73,481.77 335.62,469.73 340.38,460.23 C347.92,445.17 348.81,442.87 347.27,442.35 C335.07,438.21 327.74,432.02 321.54,420.59 C315.08,408.71 312.90,398.91 312.27,379.00 C311.43,352.17 316.59,317.40 326.46,283.34 L 328.90 274.93 L 327.45 256.72 C325.31,229.90 324.22,220.46 320.94,200.50 C319.32,190.60 317.76,181.49 317.47,180.25 C317.19,179.01 317.33,178.00 317.79,178.00 C320.20,178.00 332.55,236.55 336.03,264.50 C337.65,277.54 338.48,280.95 342.38,290.56 C358.24,329.72 368.09,364.09 371.56,392.37 C371.93,395.34 372.52,396.88 373.08,396.32 C375.76,393.64 410.66,332.45 409.66,332.18 C409.02,332.00 405.35,330.26 401.50,328.31 C393.18,324.11 388.06,318.12 383.71,307.50 C379.17,296.42 378.00,288.04 378.00,266.62 C378.00,245.23 379.48,231.36 384.15,209.00 C385.81,201.02 387.40,192.25 387.69,189.50 C388.71,179.48 384.09,140.81 378.89,116.00 C375.96,101.98 375.70,100.24 376.83,102.00 C379.64,106.40 391.57,156.26 394.06,174.00 C394.97,180.51 396.71,185.90 401.49,197.00 C419.51,238.88 428.01,266.99 429.59,289.87 C429.97,295.41 430.63,299.73 431.04,299.47 C432.16,298.78 477.28,234.93 476.86,234.64 C476.66,234.50 474.63,233.58 472.35,232.59 C467.70,230.57 462.50,225.54 458.72,219.43 C452.52,209.40 449.96,189.32 452.42,170.00 C454.42,154.28 461.32,121.99 464.46,113.68 L 467.04 106.86 L 465.97 86.18 C465.39,74.81 464.04,58.56 462.97,50.07 C461.23,36.24 461.04,31.09 462.44,35.11 C464.53,41.14 469.48,71.22 471.15,88.00 C473.01,106.69 473.52,109.39 476.99,118.52 C481.22,129.69 489.03,156.78 492.14,171.13 C493.37,176.79 494.39,186.14 494.71,194.75 C495.01,202.59 495.53,208.97 495.88,208.93 C496.22,208.90 506.37,197.17 518.43,182.88 C538.00,159.70 541.05,156.51 546.73,153.33 C550.24,151.37 553.28,149.95 553.50,150.17 C553.72,150.39 552.20,152.58 550.12,155.04 C543.63,162.69 501.93,218.26 502.35,218.69 C502.58,218.91 505.15,217.68 508.07,215.96 C521.80,207.86 539.29,199.93 563.00,191.03 C573.50,187.09 578.01,184.65 591.15,175.78 C604.69,166.64 640.43,147.10 641.55,148.22 C641.76,148.42 632.38,154.94 620.71,162.70 C586.14,185.70 580.94,189.91 573.83,200.70 C552.72,232.70 526.34,259.15 508.51,266.20 C496.47,270.95 485.64,270.64 477.71,265.31 C474.94,263.44 472.33,262.28 471.90,262.71 C470.99,263.63 443.41,306.36 441.88,309.22 C441.15,310.58 442.71,309.94 447.18,307.06 C460.69,298.33 481.21,287.30 498.47,279.49 C508.38,275.00 517.17,271.07 518.00,270.76 C518.83,270.44 523.67,266.83 528.77,262.74 C541.65,252.38 564.08,236.83 579.37,227.64 C593.01,219.46 597.45,217.93 586.83,225.08 C572.24,234.90 542.86,258.57 531.50,269.65 C527.07,273.97 523.28,279.38 517.00,290.38 C493.69,331.19 469.75,357.87 447.17,368.21 C441.41,370.85 439.27,371.28 431.48,371.38 C423.23,371.49 421.91,371.23 416.01,368.31 C412.45,366.55 409.47,365.20 409.36,365.31 C408.83,365.85 379.00,423.04 379.00,423.51 C379.00,423.81 382.26,421.86 386.25,419.17 C401.83,408.66 426.22,396.56 459.00,383.06 C476.56,375.83 478.28,374.87 492.73,364.24 C508.39,352.72 514.75,348.55 538.00,334.51 C556.87,323.12 563.00,319.72 562.99,320.68 C562.98,321.13 559.13,323.98 554.44,327.00 C533.97,340.18 510.29,357.95 491.20,374.46 C483.78,380.88 480.97,384.12 477.29,390.50 C464.09,413.40 441.56,443.61 426.58,458.51 C407.79,477.19 396.99,484.07 380.25,487.99 C372.34,489.85 370.39,489.98 364.93,488.99 C361.49,488.36 356.92,487.15 354.77,486.29 C352.51,485.39 350.50,485.10 349.99,485.62 C349.28,486.34 329.98,529.96 326.91,537.81 C325.82,540.58 326.06,540.47 335.00,533.94 C355.85,518.73 391.01,499.58 427.60,483.51 C437.99,478.95 441.25,476.90 450.60,469.07 C469.44,453.29 529.91,411.57 531.55,413.22 C531.83,413.50 527.21,417.24 521.28,421.53 C501.34,435.97 483.58,450.66 461.32,471.14 C446.61,484.68 444.72,486.81 440.42,494.71 C427.53,518.35 402.48,554.82 387.26,572.11 C359.63,603.48 330.07,616.44 306.76,607.41 C303.78,606.26 301.71,605.93 301.17,606.54 C300.19,607.63 278.00,673.24 278.00,675.03 C278.00,675.67 279.69,674.79 281.75,673.07 C303.38,655.07 346.69,630.20 394.00,608.61 C402.91,604.54 408.08,601.47 412.00,597.93 C428.92,582.63 471.58,551.68 502.59,532.20 C510.95,526.94 510.80,528.58 502.36,534.63 C494.09,540.56 479.53,551.81 462.00,565.82 C456.23,570.44 443.75,581.20 434.27,589.73 L 417.05 605.24 L 411.15 616.37 C404.87,628.22 392.09,649.68 382.49,664.50 C366.14,689.76 345.55,714.22 329.13,727.91 C320.16,735.38 305.63,744.18 297.50,747.07 C288.13,750.40 274.09,750.83 265.00,748.07 C261.03,746.86 257.57,746.10 257.30,746.37 C255.57,748.10 234.04,839.69 229.00,866.73 C226.78,878.67 224.63,888.76 224.23,889.15 C223.83,889.54 218.55,886.71 212.50,882.86 Z" fill="rgba(254,254,254,1)"/>
</g>
</svg>