<svg xmlns="http://www.w3.org/2000/svg" width="961" height="960" viewBox="0 0 961 960">
<g>
<path d="M 288.05 693.49 C268.74,694.74 264.78,694.70 248.50,693.04 L 231.50 691.30 L 214.00 682.84 C201.93,677.01 192.40,671.51 183.30,665.13 C169.08,655.18 166.45,652.29 152.30,631.19 C144.13,618.99 142.48,615.74 134.94,596.86 C126.21,575.00 124.08,562.56 123.96,532.70 C123.91,520.49 124.59,501.05 125.46,489.50 C126.83,471.45 127.76,465.34 132.12,446.00 C140.29,409.67 153.48,372.28 164.87,353.10 C170.35,343.88 189.77,319.22 196.85,312.49 C206.44,303.37 211.05,300.39 224.00,294.91 L 236.50 289.62 L 249.50 289.62 C261.49,289.62 263.22,289.86 271.72,292.78 C283.12,296.69 291.06,300.65 301.78,307.78 C312.08,314.63 314.47,316.85 331.85,335.71 C346.19,351.29 352.20,359.60 367.08,384.50 C387.21,418.17 406.60,473.33 411.55,511.00 C414.45,533.01 413.30,555.08 407.87,581.50 C399.26,623.45 379.34,651.85 341.00,676.82 C329.80,684.11 329.07,684.42 313.05,688.62 C302.95,691.26 293.29,693.14 288.05,693.49 ZM 606.50 717.98 C591.77,719.41 582.75,719.10 560.50,716.40 C539.73,713.89 528.48,710.83 513.46,703.60 C491.72,693.15 473.87,678.03 457.21,655.94 C450.58,647.14 449.55,645.09 444.43,630.44 C437.03,609.29 435.03,596.07 435.06,568.50 L 435.08 548.50 L 442.29 530.49 C446.98,518.77 452.27,507.76 457.43,498.99 C464.35,487.21 466.42,484.55 473.76,478.02 C490.21,463.37 500.70,456.18 519.06,446.98 C532.94,440.02 539.13,437.53 548.56,435.09 C566.39,430.47 590.71,428.17 624.50,427.91 C651.44,427.70 653.33,427.81 674.50,430.91 C711.33,436.32 749.16,446.51 768.50,456.25 C779.22,461.65 809.22,482.57 815.73,489.18 C820.49,494.02 823.62,498.67 829.07,509.00 C835.52,521.20 836.30,523.32 837.30,531.24 C839.69,550.20 832.72,574.22 818.50,596.00 C814.11,602.73 792.49,627.22 784.21,634.84 C770.39,647.57 738.87,669.46 720.73,678.93 C677.51,701.49 638.28,714.91 606.50,717.98 ZM 456.58 444.62 C448.28,451.98 441.27,457.99 441.00,457.99 C440.73,457.99 435.34,445.50 429.02,430.24 C409.99,384.24 404.56,374.34 381.20,343.08 C372.93,332.01 366.62,322.63 366.68,321.50 C367.15,312.63 387.04,271.16 402.41,247.00 C423.76,213.45 436.64,196.51 452.65,180.94 C465.75,168.19 472.03,163.83 489.29,155.48 C505.73,147.52 513.13,145.68 526.50,146.22 C539.09,146.73 546.71,149.74 563.65,160.92 C583.93,174.29 593.31,185.96 609.98,218.50 C620.27,238.58 623.73,248.04 631.37,277.08 C638.00,302.26 639.94,313.27 644.49,351.50 C646.69,370.02 647.82,393.85 646.55,395.12 C646.30,395.36 639.89,395.00 632.30,394.30 C618.81,393.06 568.85,392.36 567.19,393.38 C566.74,393.66 561.55,394.38 555.67,394.98 C523.90,398.21 489.45,415.47 456.58,444.62 ZM 781.00 555.26 C783.48,555.47 786.30,555.73 787.27,555.83 C790.20,556.11 797.68,548.40 799.41,543.30 C801.92,535.93 800.70,531.77 793.43,523.02 C781.71,508.91 764.16,494.83 750.50,488.59 C735.78,481.87 701.99,474.00 687.84,474.00 L 681.41 474.00 L 677.84 478.75 C672.74,485.52 672.00,487.28 672.00,492.59 C672.00,496.36 672.65,498.17 675.25,501.61 C679.16,506.79 678.92,506.69 689.49,508.00 C703.09,509.69 719.44,513.76 729.62,518.00 C743.44,523.75 758.25,534.26 764.72,542.91 C771.36,551.79 775.28,554.75 781.00,555.26 ZM 454.21 298.73 C460.42,300.22 460.66,300.20 466.00,297.91 C470.72,295.88 470.95,295.57 473.55,288.16 C485.71,253.39 503.60,228.72 524.03,218.51 C535.92,212.57 537.49,211.05 539.53,203.53 C541.50,196.25 541.18,194.75 536.50,189.18 C532.94,184.96 527.07,182.00 522.29,182.02 C511.80,182.06 480.42,204.92 468.08,221.50 C457.59,235.61 440.00,275.26 440.00,284.82 C440.00,285.93 442.23,289.28 444.96,292.27 C448.72,296.38 450.97,297.95 454.21,298.73 ZM 191.51 450.26 C197.97,451.21 199.63,450.86 204.09,447.58 C208.30,444.49 208.79,443.68 209.95,437.86 C212.59,424.57 219.15,405.01 224.20,395.33 C231.63,381.09 242.30,368.26 251.49,362.54 C262.08,355.94 264.67,352.63 265.53,344.60 C266.20,338.27 266.13,337.95 262.94,333.93 C259.23,329.24 252.74,326.00 247.06,326.00 C242.22,326.00 232.40,332.52 219.75,344.12 C202.66,359.79 196.39,369.41 187.12,394.17 C178.88,416.17 174.69,436.69 177.59,440.83 C179.87,444.08 188.29,449.79 191.51,450.26 Z" fill="rgba(254,253,253,1)"/>
<path d="M 450.50 958.89 C358.28,953.09 267.95,920.15 194.50,865.55 C166.57,844.79 133.64,813.91 112.88,789.00 C49.86,713.40 13.16,626.52 2.40,527.50 C0.25,507.68 -0.09,457.64 1.80,439.00 C8.91,368.88 27.31,308.16 58.91,250.59 C126.60,127.26 245.94,39.02 382.88,11.03 C418.18,3.82 441.71,1.53 480.50,1.53 C511.88,1.53 524.10,2.33 550.00,6.09 C741.32,33.84 898.31,174.87 945.88,361.73 C952.15,386.37 956.33,410.63 959.20,439.00 C961.09,457.65 960.75,507.70 958.60,527.50 C947.84,626.49 911.11,713.43 848.12,789.00 C827.36,813.91 794.43,844.79 766.50,865.55 C676.56,932.41 562.94,965.97 450.50,958.89 ZM 606.50 717.98 C638.28,714.91 677.51,701.49 720.73,678.93 C738.87,669.46 770.39,647.57 784.21,634.84 C792.49,627.22 814.11,602.73 818.50,596.00 C832.72,574.22 839.69,550.20 837.30,531.24 C836.30,523.32 835.52,521.20 829.07,509.00 C823.62,498.67 820.49,494.02 815.73,489.18 C809.22,482.57 779.22,461.65 768.50,456.25 C749.16,446.51 711.33,436.32 674.50,430.91 C653.33,427.81 651.44,427.70 624.50,427.91 C590.71,428.17 566.39,430.47 548.56,435.09 C539.13,437.53 532.94,440.02 519.06,446.98 C500.70,456.18 490.21,463.37 473.76,478.02 C466.42,484.55 464.35,487.21 457.43,498.99 C452.27,507.76 446.98,518.77 442.29,530.49 L 435.08 548.50 L 435.06 568.50 C435.03,596.07 437.03,609.29 444.43,630.44 C449.55,645.09 450.58,647.14 457.21,655.94 C473.87,678.03 491.72,693.15 513.46,703.60 C528.48,710.83 539.73,713.89 560.50,716.40 C582.75,719.10 591.77,719.41 606.50,717.98 ZM 288.05 693.49 C293.29,693.14 302.95,691.26 313.05,688.62 C329.07,684.42 329.80,684.11 341.00,676.82 C379.34,651.85 399.26,623.45 407.87,581.50 C413.30,555.08 414.45,533.01 411.55,511.00 C406.60,473.33 387.21,418.17 367.08,384.50 C352.20,359.60 346.19,351.29 331.85,335.71 C314.47,316.85 312.08,314.63 301.78,307.78 C291.06,300.65 283.12,296.69 271.72,292.78 C263.22,289.86 261.49,289.62 249.50,289.62 L 236.50 289.62 L 224.00 294.91 C211.05,300.39 206.44,303.37 196.85,312.49 C189.77,319.22 170.35,343.88 164.87,353.10 C153.48,372.28 140.29,409.67 132.12,446.00 C127.76,465.34 126.83,471.45 125.46,489.50 C124.59,501.05 123.91,520.49 123.96,532.70 C124.08,562.56 126.21,575.00 134.94,596.86 C142.48,615.74 144.13,618.99 152.30,631.19 C166.45,652.29 169.08,655.18 183.30,665.13 C192.40,671.51 201.93,677.01 214.00,682.84 L 231.50 691.30 L 248.50 693.04 C264.78,694.70 268.74,694.74 288.05,693.49 ZM 456.58 444.62 C489.45,415.47 523.90,398.21 555.67,394.98 C561.55,394.38 566.74,393.66 567.19,393.38 C568.85,392.36 618.81,393.06 632.30,394.30 C639.89,395.00 646.30,395.36 646.55,395.12 C647.82,393.85 646.69,370.02 644.49,351.50 C639.94,313.27 638.00,302.26 631.37,277.08 C623.73,248.04 620.27,238.58 609.98,218.50 C593.31,185.96 583.93,174.29 563.65,160.92 C546.71,149.74 539.09,146.73 526.50,146.22 C513.13,145.68 505.73,147.52 489.29,155.48 C472.03,163.83 465.75,168.19 452.65,180.94 C436.64,196.51 423.76,213.45 402.41,247.00 C387.04,271.16 367.15,312.63 366.68,321.50 C366.62,322.63 372.93,332.01 381.20,343.08 C404.56,374.34 409.99,384.24 429.02,430.24 C435.34,445.50 440.73,457.99 441.00,457.99 C441.27,457.99 448.28,451.98 456.58,444.62 ZM 781.00 555.26 C775.28,554.75 771.36,551.79 764.72,542.91 C758.25,534.26 743.44,523.75 729.62,518.00 C719.44,513.76 703.09,509.69 689.49,508.00 C678.92,506.69 679.16,506.79 675.25,501.61 C672.65,498.17 672.00,496.36 672.00,492.59 C672.00,487.28 672.74,485.52 677.84,478.75 L 681.41 474.00 L 687.84 474.00 C701.99,474.00 735.78,481.87 750.50,488.59 C764.16,494.83 781.71,508.91 793.43,523.02 C800.70,531.77 801.92,535.93 799.41,543.30 C797.68,548.40 790.20,556.11 787.27,555.83 C786.30,555.73 783.48,555.47 781.00,555.26 ZM 191.51 450.26 C188.29,449.79 179.87,444.08 177.59,440.83 C174.69,436.69 178.88,416.17 187.12,394.17 C196.39,369.41 202.66,359.79 219.75,344.12 C232.40,332.52 242.22,326.00 247.06,326.00 C252.74,326.00 259.23,329.24 262.94,333.93 C266.13,337.95 266.20,338.27 265.53,344.60 C264.67,352.63 262.08,355.94 251.49,362.54 C242.30,368.26 231.63,381.09 224.20,395.33 C219.15,405.01 212.59,424.57 209.95,437.86 C208.79,443.68 208.30,444.49 204.09,447.58 C199.63,450.86 197.97,451.21 191.51,450.26 ZM 454.21 298.73 C450.97,297.95 448.72,296.38 444.96,292.27 C442.23,289.28 440.00,285.93 440.00,284.82 C440.00,275.26 457.59,235.61 468.08,221.50 C480.42,204.92 511.80,182.06 522.29,182.02 C527.07,182.00 532.94,184.96 536.50,189.18 C541.18,194.75 541.50,196.25 539.53,203.53 C537.49,211.05 535.92,212.57 524.03,218.51 C503.60,228.72 485.71,253.39 473.55,288.16 C470.95,295.57 470.72,295.88 466.00,297.91 C460.66,300.20 460.42,300.22 454.21,298.73 Z" fill="rgba(255,142,31,1)"/>
</g>
</svg>