<svg xmlns="http://www.w3.org/2000/svg" width="961" height="961" viewBox="0 0 961 961">
<g>
<path d="M 445.00 958.86 C353.23,951.99 264.41,918.44 190.75,862.81 C155.42,836.13 121.09,801.44 94.48,765.50 C22.45,668.25 -10.28,546.13 3.54,426.23 C23.95,249.17 140.30,98.10 306.00,33.49 C388.27,1.41 479.48,-7.30 567.00,8.57 C751.98,42.13 901.50,182.65 946.43,365.16 C974.10,477.54 960.70,594.88 908.49,697.50 C891.21,731.48 873.47,758.30 848.00,789.00 C835.74,803.78 807.83,831.99 792.89,844.70 C713.87,911.93 617.40,951.39 513.50,958.97 C497.23,960.16 461.59,960.10 445.00,958.86 ZM 495.50 782.96 C561.08,784.07 561.12,784.07 581.00,781.60 L 599.50 779.31 L 610.11 773.15 C626.42,763.69 634.20,754.95 649.94,728.45 C656.78,716.93 663.85,705.03 665.65,702.00 C670.41,694.01 681.63,666.44 682.96,659.47 C688.96,628.04 690.10,620.02 691.14,602.00 C692.71,574.90 690.93,547.78 685.49,516.00 C684.69,511.33 683.10,501.65 681.96,494.50 C678.35,471.94 671.39,451.10 657.50,421.36 C644.62,393.78 644.32,393.30 620.36,360.93 L 608.09 344.36 L 606.04 331.03 C604.92,323.71 604.00,316.23 604.00,314.41 C604.00,311.52 610.06,282.92 612.93,272.26 C613.50,270.13 615.89,265.83 618.24,262.71 C622.94,256.45 630.53,251.28 647.50,242.78 C653.00,240.02 660.53,235.30 664.24,232.28 C672.51,225.54 673.60,222.67 673.26,208.53 L 673.02 198.57 L 665.81 191.30 C659.15,184.60 657.90,183.80 649.55,180.93 C642.20,178.41 638.33,177.73 629.00,177.29 C617.64,176.76 617.27,176.82 598.00,181.82 C572.92,188.33 531.33,202.66 509.00,212.48 C466.81,231.05 447.69,238.53 439.57,239.65 C434.22,240.38 419.01,238.60 406.73,235.82 C399.02,234.07 397.78,233.48 396.48,230.96 C395.67,229.39 395.00,227.89 395.00,227.64 C395.00,226.28 408.92,219.80 418.50,216.71 C431.28,212.57 451.10,210.19 479.50,209.38 C495.38,208.92 503.78,207.72 511.25,204.82 C512.76,204.24 514.00,203.43 514.00,203.03 C514.00,200.41 453.15,198.64 441.30,200.92 C438.66,201.43 431.10,202.63 424.50,203.59 C417.90,204.55 405.24,207.47 396.36,210.07 C381.49,214.44 379.59,215.27 372.18,220.65 C364.27,226.40 364.11,226.60 362.54,232.84 C360.10,242.45 362.36,252.58 370.63,269.18 L 376.94 281.85 L 361.72 287.00 C350.86,290.67 342.78,294.23 333.50,299.41 C320.77,306.53 320.22,306.98 307.16,321.09 C293.99,335.32 293.73,335.69 286.40,350.81 C279.31,365.45 278.85,366.84 275.98,382.31 C274.32,391.22 272.02,407.27 270.86,418.00 L 268.76 437.50 L 271.02 449.50 C272.26,456.10 276.34,472.08 280.09,485.00 C285.41,503.36 288.36,511.56 293.57,522.50 C302.11,540.41 315.82,565.34 322.49,575.10 L 327.69 582.71 L 328.28 606.10 L 328.87 629.50 L 333.43 646.50 C335.95,655.85 341.06,671.83 344.79,682.00 L 351.58 700.50 L 368.49 725.50 C394.42,763.84 404.43,773.52 422.52,777.78 C436.46,781.06 453.25,782.25 495.50,782.96 ZM 332.33 521.25 C332.00,523.86 331.34,526.00 330.87,526.00 C329.41,526.00 315.31,496.82 311.50,485.89 C300.03,453.08 298.10,415.66 306.58,390.63 C312.51,373.12 318.43,363.79 333.00,349.02 C346.31,335.52 354.90,329.21 372.30,320.12 C381.52,315.30 382.26,315.08 384.80,316.40 C392.07,320.16 394.32,328.47 393.33,348.00 C392.52,363.99 390.41,370.30 380.95,385.14 C369.44,403.17 362.67,416.34 355.52,434.54 C343.55,465.02 335.87,493.74 332.33,521.25 ZM 385.17 514.50 C379.97,527.03 377.17,530.28 372.50,529.24 C366.84,527.98 365.55,523.26 367.66,511.50 C368.45,507.10 369.78,499.70 370.62,495.04 C372.48,484.72 375.93,473.73 385.69,447.00 C391.42,431.32 395.75,421.65 404.12,405.89 C410.14,394.55 417.30,380.33 420.05,374.28 C426.19,360.75 427.02,353.68 424.60,335.55 C423.72,328.97 422.47,316.57 421.81,307.99 C420.78,294.34 420.82,291.91 422.18,288.49 C423.50,285.21 424.51,284.32 428.62,282.87 C433.58,281.13 443.31,280.51 448.75,281.60 C451.15,282.08 452.23,283.22 454.13,287.27 C456.44,292.22 456.50,293.00 456.49,319.42 C456.48,349.47 455.13,361.41 450.44,372.96 C445.97,383.97 435.51,404.02 427.48,417.00 C418.64,431.29 402.53,466.74 394.99,488.50 C392.33,496.20 387.91,507.90 385.17,514.50 Z" fill="rgba(124,50,22,1)"/>
<path d="M 495.50 782.96 C453.25,782.25 436.46,781.06 422.52,777.78 C404.43,773.52 394.42,763.84 368.49,725.50 L 351.58 700.50 L 344.79 682.00 C341.06,671.83 335.95,655.85 333.43,646.50 L 328.87 629.50 L 328.28 606.10 L 327.69 582.71 L 322.49 575.10 C315.82,565.34 302.11,540.41 293.57,522.50 C288.36,511.56 285.41,503.36 280.09,485.00 C276.34,472.08 272.26,456.10 271.02,449.50 L 268.76 437.50 L 270.86 418.00 C272.02,407.27 274.32,391.22 275.98,382.31 C278.85,366.84 279.31,365.45 286.40,350.81 C293.73,335.69 293.99,335.32 307.16,321.09 C320.22,306.98 320.77,306.53 333.50,299.41 C342.78,294.23 350.86,290.67 361.72,287.00 L 376.94 281.85 L 370.63 269.18 C362.36,252.58 360.10,242.45 362.54,232.84 C364.11,226.60 364.27,226.40 372.18,220.65 C379.59,215.27 381.49,214.44 396.36,210.07 C405.24,207.47 417.90,204.55 424.50,203.59 C431.10,202.63 438.66,201.43 441.30,200.92 C453.15,198.64 514.00,200.41 514.00,203.03 C514.00,203.43 512.76,204.24 511.25,204.82 C503.78,207.72 495.38,208.92 479.50,209.38 C451.10,210.19 431.28,212.57 418.50,216.71 C408.92,219.80 395.00,226.28 395.00,227.64 C395.00,227.89 395.67,229.39 396.48,230.96 C397.78,233.48 399.02,234.07 406.73,235.82 C419.01,238.60 434.22,240.38 439.57,239.65 C447.69,238.53 466.81,231.05 509.00,212.48 C531.33,202.66 572.92,188.33 598.00,181.82 C617.27,176.82 617.64,176.76 629.00,177.29 C638.33,177.73 642.20,178.41 649.55,180.93 C657.90,183.80 659.15,184.60 665.81,191.30 L 673.02 198.57 L 673.26 208.53 C673.60,222.67 672.51,225.54 664.24,232.28 C660.53,235.30 653.00,240.02 647.50,242.78 C630.53,251.28 622.94,256.45 618.24,262.71 C615.89,265.83 613.50,270.13 612.93,272.26 C610.06,282.92 604.00,311.52 604.00,314.41 C604.00,316.23 604.92,323.71 606.04,331.03 L 608.09 344.36 L 620.36 360.93 C644.32,393.30 644.62,393.78 657.50,421.36 C671.39,451.10 678.35,471.94 681.96,494.50 C683.10,501.65 684.69,511.33 685.49,516.00 C690.93,547.78 692.71,574.90 691.14,602.00 C690.10,620.02 688.96,628.04 682.96,659.47 C681.63,666.44 670.41,694.01 665.65,702.00 C663.85,705.03 656.78,716.93 649.94,728.45 C634.20,754.95 626.42,763.69 610.11,773.15 L 599.50 779.31 L 581.00 781.60 C561.12,784.07 561.08,784.07 495.50,782.96 ZM 385.17 514.50 C387.91,507.90 392.33,496.20 394.99,488.50 C402.53,466.74 418.64,431.29 427.48,417.00 C435.51,404.02 445.97,383.97 450.44,372.96 C455.13,361.41 456.48,349.47 456.49,319.42 C456.50,293.00 456.44,292.22 454.13,287.27 C452.23,283.22 451.15,282.08 448.75,281.60 C443.31,280.51 433.58,281.13 428.62,282.87 C424.51,284.32 423.50,285.21 422.18,288.49 C420.82,291.91 420.78,294.34 421.81,307.99 C422.47,316.57 423.72,328.97 424.60,335.55 C427.02,353.68 426.19,360.75 420.05,374.28 C417.30,380.33 410.14,394.55 404.12,405.89 C395.75,421.65 391.42,431.32 385.69,447.00 C375.93,473.73 372.48,484.72 370.62,495.04 C369.78,499.70 368.45,507.10 367.66,511.50 C365.55,523.26 366.84,527.98 372.50,529.24 C377.17,530.28 379.97,527.03 385.17,514.50 ZM 332.33 521.25 C335.87,493.74 343.55,465.02 355.52,434.54 C362.67,416.34 369.44,403.17 380.95,385.14 C390.41,370.30 392.52,363.99 393.33,348.00 C394.32,328.47 392.07,320.16 384.80,316.40 C382.26,315.08 381.52,315.30 372.30,320.12 C354.90,329.21 346.31,335.52 333.00,349.02 C318.43,363.79 312.51,373.12 306.58,390.63 C298.10,415.66 300.03,453.08 311.50,485.89 C315.31,496.82 329.41,526.00 330.87,526.00 C331.34,526.00 332.00,523.86 332.33,521.25 Z" fill="rgba(254,254,254,1)"/>
</g>
</svg>