<svg xmlns="http://www.w3.org/2000/svg" width="961" height="960" viewBox="0 0 961 960">
<g>
<path d="M 450.50 958.89 C358.28,953.09 267.95,920.15 194.50,865.55 C166.57,844.79 133.64,813.91 112.88,789.00 C49.86,713.40 13.16,626.52 2.40,527.50 C0.25,507.68 -0.09,457.64 1.80,439.00 C8.91,368.88 27.31,308.16 58.91,250.59 C121.23,137.06 227.33,52.97 351.67,18.57 C396.00,6.31 431.06,1.64 479.50,1.56 C512.03,1.51 523.53,2.25 550.00,6.09 C740.13,33.66 896.55,173.21 945.04,358.50 C951.89,384.68 956.15,408.91 959.20,439.00 C961.09,457.64 960.75,507.68 958.60,527.50 C947.84,626.49 911.11,713.43 848.12,789.00 C827.36,813.91 794.43,844.79 766.50,865.55 C676.56,932.41 562.94,965.97 450.50,958.89 ZM 329.16 782.46 C334.37,783.60 361.07,783.86 478.73,783.92 L 621.96 784.00 L 635.73 778.54 C655.33,770.78 658.99,766.36 659.19,750.20 C659.29,741.84 656.69,729.31 653.28,721.69 C651.85,718.50 646.02,709.73 640.33,702.21 C634.64,694.68 630.12,688.14 630.28,687.67 C630.44,687.19 636.89,683.10 644.63,678.58 C663.95,667.28 673.71,660.20 685.46,648.96 C690.98,643.69 709.90,626.73 727.50,611.29 C745.10,595.85 768.11,574.50 778.64,563.86 C796.32,545.97 798.55,543.30 807.96,528.71 C827.21,498.89 833.53,478.74 834.97,442.52 C835.56,427.71 836.50,418.51 838.57,407.16 C841.03,393.65 841.22,391.26 840.15,387.16 C838.36,380.33 832.85,369.36 827.76,362.48 C823.72,357.02 822.47,356.09 814.40,352.57 C809.51,350.44 800.75,345.79 794.95,342.24 C785.02,336.16 784.23,335.42 781.30,329.64 C779.59,326.26 777.92,321.92 777.59,319.98 C777.27,318.04 775.15,313.32 772.89,309.48 C770.64,305.64 767.75,300.17 766.48,297.33 C763.90,291.53 758.52,283.30 749.74,271.70 C741.05,260.22 732.13,254.67 712.00,248.20 C703.47,245.47 691.33,241.99 685.00,240.48 C676.64,238.48 669.63,235.88 659.33,230.98 C645.73,224.49 644.68,223.77 633.06,212.86 C626.41,206.61 618.91,199.88 616.41,197.90 C610.38,193.12 591.53,183.18 582.07,179.78 C575.10,177.27 573.29,177.05 559.21,177.03 C544.45,177.00 543.28,177.16 525.21,181.53 C504.23,186.61 494.05,187.96 476.33,187.98 C465.62,188.00 462.19,187.53 447.83,184.11 C424.60,178.59 405.71,176.42 394.30,177.98 C371.37,181.11 358.95,185.70 348.85,194.76 C345.91,197.41 339.67,202.70 335.00,206.52 C330.33,210.35 322.23,217.27 317.00,221.91 C309.25,228.78 305.38,231.34 296.00,235.81 C284.64,241.21 277.78,243.16 236.50,252.71 C229.68,254.29 229.20,254.61 217.71,265.41 C211.23,271.51 204.73,278.52 203.27,281.00 C201.80,283.48 194.85,297.04 187.82,311.14 C178.58,329.68 174.14,337.55 171.78,339.53 C169.99,341.04 162.98,344.93 156.20,348.18 C145.73,353.21 142.69,355.23 135.94,361.68 C126.78,370.43 122.63,377.78 121.04,388.06 C119.81,396.02 121.89,418.53 124.90,429.87 C126.30,435.12 126.59,437.94 125.93,439.68 C125.42,441.03 125.00,443.81 125.00,445.87 C125.00,449.63 128.96,474.64 130.88,483.00 C137.33,511.07 160.75,543.39 206.12,586.86 C239.14,618.50 279.64,652.61 306.24,671.18 C317.80,679.26 327.68,686.28 328.19,686.79 C329.76,688.36 323.18,701.56 312.75,717.74 C301.39,735.35 299.82,739.05 299.86,748.19 C299.91,758.92 302.88,767.38 309.11,774.48 C312.32,778.13 316.08,779.63 329.16,782.46 ZM 505.02 402.00 C498.98,494.02 493.83,569.50 493.60,569.74 C492.74,570.59 491.85,557.04 482.51,400.50 C477.29,313.05 472.88,239.78 472.72,237.67 C472.43,233.88 472.46,233.84 475.47,234.51 C481.47,235.85 503.42,236.18 509.32,235.02 C512.55,234.38 515.38,234.05 515.61,234.27 C515.83,234.50 511.07,309.98 505.02,402.00 ZM 613.53 424.50 C582.30,499.30 556.30,560.95 555.74,561.50 C555.07,562.17 554.97,561.50 555.42,559.50 C556.91,552.85 633.20,263.47 633.55,263.12 C633.76,262.91 637.21,265.24 641.22,268.30 C645.22,271.37 650.59,274.76 653.14,275.85 C655.69,276.94 658.07,278.30 658.42,278.88 C658.78,279.45 661.78,281.14 665.11,282.63 C669.42,284.57 671.03,285.79 670.73,286.92 C670.50,287.79 644.76,349.70 613.53,424.50 ZM 393.39 411.54 C414.78,493.22 432.07,560.26 431.81,560.52 C431.29,561.05 430.80,559.89 404.03,495.50 C384.90,449.46 381.54,441.41 377.98,433.00 C376.93,430.52 367.49,407.80 357.01,382.50 C346.52,357.20 337.07,334.48 336.00,332.00 C330.07,318.28 317.00,286.01 317.00,285.08 C317.00,284.49 317.64,284.00 318.43,284.00 C321.27,284.00 339.97,273.56 346.48,268.34 C350.14,265.40 353.44,263.01 353.82,263.01 C354.19,263.02 372.00,329.86 393.39,411.54 ZM 372.42 566.75 C374.49,569.64 375.81,572.00 375.34,571.99 C374.48,571.98 205.86,401.52 198.27,392.98 L 194.04 388.23 L 201.03 384.55 C205.46,382.23 211.35,377.72 217.06,372.28 C222.17,367.42 226.44,364.08 226.91,364.59 C227.52,365.27 343.14,525.89 372.42,566.75 ZM 689.12 495.25 C646.55,538.56 611.52,574.00 611.28,574.00 C611.03,574.00 611.02,573.45 611.24,572.79 C612.14,570.07 761.59,364.04 762.67,364.02 C763.31,364.01 765.29,365.91 767.07,368.25 C771.77,374.40 775.41,377.38 785.27,383.14 L 794.04 388.27 L 780.28 402.38 C772.72,410.15 731.70,451.94 689.12,495.25 Z" fill="rgba(0,197,215,1)"/>
<path d="M 329.16 782.46 C316.08,779.63 312.32,778.13 309.11,774.48 C302.88,767.38 299.91,758.92 299.86,748.19 C299.82,739.05 301.39,735.35 312.75,717.74 C323.18,701.56 329.76,688.36 328.19,686.79 C327.68,686.28 317.80,679.26 306.24,671.18 C279.64,652.61 239.14,618.50 206.12,586.86 C160.75,543.39 137.33,511.07 130.88,483.00 C128.96,474.64 125.00,449.63 125.00,445.87 C125.00,443.81 125.42,441.03 125.93,439.68 C126.59,437.94 126.30,435.12 124.90,429.87 C121.89,418.53 119.81,396.02 121.04,388.06 C122.63,377.78 126.78,370.43 135.94,361.68 C142.69,355.23 145.73,353.21 156.20,348.18 C162.98,344.93 169.99,341.04 171.78,339.53 C174.14,337.55 178.58,329.68 187.82,311.14 C194.85,297.04 201.80,283.48 203.27,281.00 C204.73,278.52 211.23,271.51 217.71,265.41 C229.20,254.61 229.68,254.29 236.50,252.71 C277.78,243.16 284.64,241.21 296.00,235.81 C305.38,231.34 309.25,228.78 317.00,221.91 C322.23,217.27 330.33,210.35 335.00,206.52 C339.67,202.70 345.91,197.41 348.85,194.76 C358.95,185.70 371.37,181.11 394.30,177.98 C405.71,176.42 424.60,178.59 447.83,184.11 C462.19,187.53 465.62,188.00 476.33,187.98 C494.05,187.96 504.23,186.61 525.21,181.53 C543.28,177.16 544.45,177.00 559.21,177.03 C573.29,177.05 575.10,177.27 582.07,179.78 C591.53,183.18 610.38,193.12 616.41,197.90 C618.91,199.88 626.41,206.61 633.06,212.86 C644.68,223.77 645.73,224.49 659.33,230.98 C669.63,235.88 676.64,238.48 685.00,240.48 C691.33,241.99 703.47,245.47 712.00,248.20 C732.13,254.67 741.05,260.22 749.74,271.70 C758.52,283.30 763.90,291.53 766.48,297.33 C767.75,300.17 770.64,305.64 772.89,309.48 C775.15,313.32 777.27,318.04 777.59,319.98 C777.92,321.92 779.59,326.26 781.30,329.64 C784.23,335.42 785.02,336.16 794.95,342.24 C800.75,345.79 809.51,350.44 814.40,352.57 C822.47,356.09 823.72,357.02 827.76,362.48 C832.85,369.36 838.36,380.33 840.15,387.16 C841.22,391.26 841.03,393.65 838.57,407.16 C836.50,418.51 835.56,427.71 834.97,442.52 C833.53,478.74 827.21,498.89 807.96,528.71 C798.55,543.30 796.32,545.97 778.64,563.86 C768.11,574.50 745.10,595.85 727.50,611.29 C709.90,626.73 690.98,643.69 685.46,648.96 C673.71,660.20 663.95,667.28 644.63,678.58 C636.89,683.10 630.44,687.19 630.28,687.67 C630.12,688.14 634.64,694.68 640.33,702.21 C646.02,709.73 651.85,718.50 653.28,721.69 C656.69,729.31 659.29,741.84 659.19,750.20 C658.99,766.36 655.33,770.78 635.73,778.54 L 621.96 784.00 L 478.73 783.92 C361.07,783.86 334.37,783.60 329.16,782.46 ZM 689.12 495.25 C731.70,451.94 772.72,410.15 780.28,402.38 L 794.04 388.27 L 785.27 383.14 C775.41,377.38 771.77,374.40 767.07,368.25 C765.29,365.91 763.31,364.01 762.67,364.02 C761.59,364.04 612.14,570.07 611.24,572.79 C611.02,573.45 611.03,574.00 611.28,574.00 C611.52,574.00 646.55,538.56 689.12,495.25 ZM 372.42 566.75 C343.14,525.89 227.52,365.27 226.91,364.59 C226.44,364.08 222.17,367.42 217.06,372.28 C211.35,377.72 205.46,382.23 201.03,384.55 L 194.04 388.23 L 198.27 392.98 C205.86,401.52 374.48,571.98 375.34,571.99 C375.81,572.00 374.49,569.64 372.42,566.75 ZM 505.02 402.00 C511.07,309.98 515.83,234.50 515.61,234.27 C515.38,234.05 512.55,234.38 509.32,235.02 C503.42,236.18 481.47,235.85 475.47,234.51 C472.46,233.84 472.43,233.88 472.72,237.67 C472.88,239.78 477.29,313.05 482.51,400.50 C491.85,557.04 492.74,570.59 493.60,569.74 C493.83,569.50 498.98,494.02 505.02,402.00 ZM 613.53 424.50 C644.76,349.70 670.50,287.79 670.73,286.92 C671.03,285.79 669.42,284.57 665.11,282.63 C661.78,281.14 658.78,279.45 658.42,278.88 C658.07,278.30 655.69,276.94 653.14,275.85 C650.59,274.76 645.22,271.37 641.22,268.30 C637.21,265.24 633.76,262.91 633.55,263.12 C633.20,263.47 556.91,552.85 555.42,559.50 C554.97,561.50 555.07,562.17 555.74,561.50 C556.30,560.95 582.30,499.30 613.53,424.50 ZM 393.39 411.54 C372.00,329.86 354.19,263.02 353.82,263.01 C353.44,263.01 350.14,265.40 346.48,268.34 C339.97,273.56 321.27,284.00 318.43,284.00 C317.64,284.00 317.00,284.49 317.00,285.08 C317.00,286.01 330.07,318.28 336.00,332.00 C337.07,334.48 346.52,357.20 357.01,382.50 C367.49,407.80 376.93,430.52 377.98,433.00 C381.54,441.41 384.90,449.46 404.03,495.50 C430.80,559.89 431.29,561.05 431.81,560.52 C432.07,560.26 414.78,493.22 393.39,411.54 Z" fill="rgba(248,248,248,1)"/>
</g>
</svg>