<svg xmlns="http://www.w3.org/2000/svg" width="961" height="960" viewBox="0 0 961 960">
<g>
<path d="M 450.50 958.89 C358.28,953.09 267.95,920.15 194.50,865.55 C166.57,844.79 133.64,813.91 112.88,789.00 C49.86,713.40 13.16,626.52 2.40,527.50 C0.25,507.68 -0.09,457.64 1.80,439.00 C8.91,368.88 27.31,308.16 58.91,250.59 C126.60,127.26 245.94,39.02 382.88,11.03 C418.18,3.82 441.71,1.53 480.50,1.53 C511.88,1.53 524.10,2.33 550.00,6.09 C741.32,33.84 898.31,174.87 945.88,361.73 C952.15,386.37 956.33,410.63 959.20,439.00 C961.09,457.65 960.75,507.70 958.60,527.50 C947.84,626.49 911.11,713.43 848.12,789.00 C827.36,813.91 794.43,844.79 766.50,865.55 C676.56,932.41 562.94,965.97 450.50,958.89 ZM 465.67 689.99 C472.38,692.49 474.97,692.91 483.74,692.95 C492.48,692.99 495.36,692.56 503.49,689.95 C508.72,688.28 514.23,685.82 515.75,684.48 L 518.50 682.06 L 513.00 677.01 C509.98,674.23 502.10,667.92 495.50,662.98 C488.90,658.05 481.62,652.43 479.33,650.50 C475.17,647.01 471.97,640.56 473.64,639.03 C474.11,638.60 479.67,636.80 486.00,635.03 C535.84,621.09 609.59,590.74 634.96,573.72 C656.94,558.98 667.34,550.24 676.31,539.00 C679.60,534.88 682.63,531.50 683.05,531.50 C683.46,531.50 686.14,534.42 688.99,538.00 C691.84,541.58 702.15,552.60 711.90,562.50 C735.29,586.26 743.70,592.22 764.50,599.76 L 779.50 605.20 L 793.00 604.80 C806.35,604.41 806.59,604.36 815.08,600.35 C821.77,597.18 824.16,595.48 825.94,592.59 C827.97,589.32 828.05,588.75 826.70,587.69 C825.86,587.04 819.01,581.10 811.47,574.50 C792.26,557.69 774.27,535.79 767.68,521.20 C759.49,503.06 758.31,494.07 762.13,478.96 C764.67,468.89 769.04,459.04 776.49,446.56 C783.38,435.01 800.20,417.09 816.42,404.02 C822.79,398.89 828.00,394.38 828.00,394.00 C828.00,392.40 824.17,390.07 819.70,388.94 C816.45,388.13 809.95,387.91 799.70,388.27 C786.68,388.73 782.42,389.33 770.00,392.44 C752.72,396.77 742.17,401.61 725.03,413.06 C710.47,422.80 697.45,434.94 689.30,446.40 L 683.25 454.91 L 673.37 446.60 C651.86,428.51 607.72,401.23 582.85,390.65 C577.00,388.16 568.68,384.37 564.35,382.23 C550.57,375.40 518.91,363.50 495.75,356.46 C487.24,353.87 483.00,352.11 483.00,351.16 C483.00,349.40 488.88,338.67 499.77,320.58 C519.08,288.48 520.76,280.24 509.43,273.06 C500.46,267.37 486.37,266.67 468.20,271.01 C444.86,276.59 416.77,296.11 397.41,320.21 C392.24,326.65 387.18,332.37 386.17,332.91 C381.42,335.45 358.63,341.46 336.51,346.00 C283.97,356.78 263.82,363.03 235.13,377.44 C218.11,385.98 193.48,404.55 178.49,420.13 C166.16,432.96 145.71,458.20 138.78,469.15 L 133.07 478.19 L 149.99 491.85 C159.30,499.36 166.94,505.77 166.96,506.09 C166.98,506.42 160.90,509.54 153.45,513.03 C145.99,516.51 139.66,519.74 139.39,520.19 C139.11,520.64 144.49,528.77 151.35,538.25 C163.81,555.48 171.11,563.38 191.00,581.15 C195.68,585.33 203.02,591.04 207.32,593.83 C216.47,599.79 236.89,610.32 249.01,615.33 C264.84,621.88 291.92,627.64 320.33,630.52 C351.83,633.71 387.77,638.10 395.00,639.63 C409.58,642.74 411.73,644.02 419.31,654.02 C427.26,664.53 442.52,678.52 451.53,683.55 C455.00,685.50 461.37,688.39 465.67,689.99 ZM 339.53 609.42 C332.68,612.28 333.29,610.97 342.50,603.00 C346.63,599.43 354.56,590.85 360.13,583.94 C368.38,573.70 371.80,568.33 378.63,554.93 C383.24,545.90 388.15,534.94 389.54,530.59 C395.05,513.36 396.52,477.37 392.54,457.00 C387.58,431.58 376.76,406.14 360.04,380.56 C349.50,364.43 348.15,362.00 349.81,362.00 C351.68,362.00 377.19,387.36 383.01,395.02 C397.21,413.66 409.12,440.79 414.14,465.90 C415.97,475.09 416.18,478.76 415.72,493.50 C415.16,511.12 413.85,518.87 408.41,536.82 C403.15,554.19 386.49,576.64 369.00,589.95 C358.29,598.10 343.94,607.58 339.53,609.42 ZM 293.21 476.45 C279.69,481.05 264.72,475.14 258.29,462.68 C254.44,455.21 254.42,444.64 258.23,437.36 C263.77,426.79 273.77,421.36 286.06,422.24 C300.90,423.30 311.34,434.77 311.39,450.07 C311.43,461.89 303.91,472.80 293.21,476.45 Z" fill="rgba(11,64,161,1)"/>
<path d="M 465.67 689.99 C461.37,688.39 455.00,685.50 451.53,683.55 C442.52,678.52 427.26,664.53 419.31,654.02 C411.73,644.02 409.58,642.74 395.00,639.63 C387.77,638.10 351.83,633.71 320.33,630.52 C291.92,627.64 264.84,621.88 249.01,615.33 C236.89,610.32 216.47,599.79 207.32,593.83 C203.02,591.04 195.68,585.33 191.00,581.15 C171.11,563.38 163.81,555.48 151.35,538.25 C144.49,528.77 139.11,520.64 139.39,520.19 C139.66,519.74 145.99,516.51 153.45,513.03 C160.90,509.54 166.98,506.42 166.96,506.09 C166.94,505.77 159.30,499.36 149.99,491.85 L 133.07 478.19 L 138.78 469.15 C145.71,458.20 166.16,432.96 178.49,420.13 C193.48,404.55 218.11,385.98 235.13,377.44 C263.82,363.03 283.97,356.78 336.51,346.00 C358.63,341.46 381.42,335.45 386.17,332.91 C387.18,332.37 392.24,326.65 397.41,320.21 C416.77,296.11 444.86,276.59 468.20,271.01 C486.37,266.67 500.46,267.37 509.43,273.06 C520.76,280.24 519.08,288.48 499.77,320.58 C488.88,338.67 483.00,349.40 483.00,351.16 C483.00,352.11 487.24,353.87 495.75,356.46 C518.91,363.50 550.57,375.40 564.35,382.23 C568.68,384.37 577.00,388.16 582.85,390.65 C607.72,401.23 651.86,428.51 673.37,446.60 L 683.25 454.91 L 689.30 446.40 C697.45,434.94 710.47,422.80 725.03,413.06 C742.17,401.61 752.72,396.77 770.00,392.44 C782.42,389.33 786.68,388.73 799.70,388.27 C809.95,387.91 816.45,388.13 819.70,388.94 C824.17,390.07 828.00,392.40 828.00,394.00 C828.00,394.38 822.79,398.89 816.42,404.02 C800.20,417.09 783.38,435.01 776.49,446.56 C769.04,459.04 764.67,468.89 762.13,478.96 C758.31,494.07 759.49,503.06 767.68,521.20 C774.27,535.79 792.26,557.69 811.47,574.50 C819.01,581.10 825.86,587.04 826.70,587.69 C828.05,588.75 827.97,589.32 825.94,592.59 C824.16,595.48 821.77,597.18 815.08,600.35 C806.59,604.36 806.35,604.41 793.00,604.80 L 779.50 605.20 L 764.50 599.76 C743.70,592.22 735.29,586.26 711.90,562.50 C702.15,552.60 691.84,541.58 688.99,538.00 C686.14,534.42 683.46,531.50 683.05,531.50 C682.63,531.50 679.60,534.88 676.31,539.00 C667.34,550.24 656.94,558.98 634.96,573.72 C609.59,590.74 535.84,621.09 486.00,635.03 C479.67,636.80 474.11,638.60 473.64,639.03 C471.97,640.56 475.17,647.01 479.33,650.50 C481.62,652.43 488.90,658.05 495.50,662.98 C502.10,667.92 509.98,674.23 513.00,677.01 L 518.50 682.06 L 515.75 684.48 C514.23,685.82 508.72,688.28 503.49,689.95 C495.36,692.56 492.48,692.99 483.74,692.95 C474.97,692.91 472.38,692.49 465.67,689.99 ZM 339.53 609.42 C343.94,607.58 358.29,598.10 369.00,589.95 C386.49,576.64 403.15,554.19 408.41,536.82 C413.85,518.87 415.16,511.12 415.72,493.50 C416.18,478.76 415.97,475.09 414.14,465.90 C409.12,440.79 397.21,413.66 383.01,395.02 C377.19,387.36 351.68,362.00 349.81,362.00 C348.15,362.00 349.50,364.43 360.04,380.56 C376.76,406.14 387.58,431.58 392.54,457.00 C396.52,477.37 395.05,513.36 389.54,530.59 C388.15,534.94 383.24,545.90 378.63,554.93 C371.80,568.33 368.38,573.70 360.13,583.94 C354.56,590.85 346.63,599.43 342.50,603.00 C333.29,610.97 332.68,612.28 339.53,609.42 ZM 293.21 476.45 C303.91,472.80 311.43,461.89 311.39,450.07 C311.34,434.77 300.90,423.30 286.06,422.24 C273.77,421.36 263.77,426.79 258.23,437.36 C254.42,444.64 254.44,455.21 258.29,462.68 C264.72,475.14 279.69,481.05 293.21,476.45 Z" fill="rgba(177,234,215,1)"/>
</g>
</svg>