<svg xmlns="http://www.w3.org/2000/svg" width="961" height="960" viewBox="0 0 961 960">
<g>
<path d="M 457.00 958.95 C405.42,956.50 351.64,944.86 302.50,925.54 C286.41,919.21 252.74,902.76 237.70,893.88 C156.58,845.98 91.82,776.78 50.62,694.00 C-41.40,509.06 -5.31,287.52 140.60,141.60 C178.73,103.48 221.21,73.12 269.50,49.51 C353.10,8.62 447.80,-7.05 541.00,4.60 C724.33,27.49 879.53,155.42 937.01,331.00 C986.55,482.34 957.69,648.41 860.01,774.00 C822.02,822.85 773.03,865.42 719.53,896.06 C704.83,904.49 673.30,919.71 658.50,925.54 C608.09,945.38 556.71,956.31 501.26,959.00 C490.93,959.51 485.59,959.77 480.26,959.78 C474.55,959.79 468.83,959.52 457.00,958.95 ZM 428.75 680.27 C430.81,681.11 432.82,681.85 433.21,681.90 C433.60,681.96 436.26,678.06 439.13,673.25 C459.04,639.75 467.36,616.59 472.24,581.00 C474.02,568.08 474.34,561.26 474.18,540.00 C474.07,525.97 473.87,512.52 473.74,510.10 L 473.50 505.69 L 486.00 500.09 L 490.22 505.67 C498.90,517.17 525.78,536.35 546.11,545.55 C564.58,553.91 578.42,557.78 591.00,558.11 C620.28,558.89 639.60,552.35 670.30,531.26 C689.84,517.84 694.49,513.07 715.19,485.24 C734.64,459.09 741.32,448.05 749.57,428.50 C753.51,419.15 757.95,408.80 759.43,405.50 C762.01,399.75 764.95,389.34 764.99,385.84 C765.02,382.30 746.01,372.15 724.11,363.99 C686.02,349.81 671.99,346.73 637.00,344.84 C615.99,343.70 615.01,343.74 594.15,346.39 C570.58,349.38 566.97,350.46 547.27,360.40 C538.31,364.92 534.73,367.48 526.00,375.63 C506.64,393.71 494.67,414.66 487.16,443.61 C483.70,456.95 482.99,461.33 482.93,469.58 C482.89,475.04 482.55,481.52 482.18,483.98 C481.58,487.96 481.01,488.73 477.19,490.84 C474.82,492.15 472.69,493.03 472.46,492.79 C471.24,491.57 468.96,475.00 467.99,460.25 C467.38,451.04 466.23,438.82 465.44,433.09 C464.64,427.36 464.10,422.59 464.24,422.49 C464.38,422.38 470.12,418.22 477.00,413.23 C490.94,403.11 502.15,392.17 516.24,374.89 C532.30,355.20 536.27,347.79 546.19,319.00 L 550.15 307.50 L 550.17 290.50 C550.20,266.96 546.78,250.05 537.35,227.11 C524.46,195.80 485.49,147.37 454.06,123.63 C428.50,104.33 410.96,93.00 406.64,93.00 C403.36,93.00 375.30,126.69 362.67,145.77 C355.99,155.87 340.58,186.31 337.11,196.26 C331.92,211.11 325.15,235.07 323.62,244.00 C320.35,263.00 318.74,279.56 319.35,288.00 C320.89,309.65 327.89,333.44 337.45,349.50 C347.41,366.22 368.59,385.97 389.70,398.21 C403.21,406.04 423.88,415.63 430.00,416.90 C433.02,417.53 438.93,419.18 443.13,420.56 L 450.75 423.08 L 452.89 436.79 C454.06,444.33 455.02,452.75 455.02,455.50 C455.02,461.70 457.67,485.09 458.98,490.50 C460.88,498.34 460.88,498.34 453.04,497.57 L 446.09 496.89 L 444.49 502.37 C442.94,507.72 442.82,507.85 439.70,507.42 C437.94,507.17 428.85,506.07 419.50,504.96 C410.15,503.85 394.62,501.62 385.00,500.00 C375.38,498.38 358.95,495.94 348.50,494.58 C338.05,493.22 319.83,490.48 308.00,488.51 C285.53,484.75 256.86,478.67 265.50,479.49 C268.25,479.76 308.83,483.80 355.69,488.48 C402.54,493.17 442.08,497.00 443.55,497.00 C445.63,497.00 446.12,496.61 445.73,495.25 C437.39,466.27 436.33,463.48 429.49,452.50 C420.20,437.60 405.84,419.12 396.34,409.84 C385.80,399.54 372.35,392.09 359.00,389.15 C337.02,384.31 332.10,383.73 318.50,384.44 C302.28,385.29 287.72,387.29 273.50,390.64 C264.65,392.72 258.19,395.28 240.50,403.68 C208.42,418.92 199.50,424.79 172.50,448.37 C163.70,456.05 156.11,462.67 155.64,463.08 C153.50,464.92 184.57,506.67 199.37,521.83 C224.29,547.36 262.01,571.05 292.00,580.02 C322.16,589.03 341.72,589.25 366.99,580.84 C391.40,572.72 418.63,548.26 438.06,517.00 L 442.72 509.50 L 452.11 509.84 C457.27,510.03 461.78,510.48 462.11,510.84 C465.07,514.02 466.17,548.69 463.99,570.00 C460.79,601.26 444.57,648.43 429.41,670.58 C426.98,674.12 425.00,677.40 425.00,677.87 C425.00,678.34 426.69,679.42 428.75,680.27 ZM 310.50 865.40 C332.22,868.63 364.95,868.89 389.00,866.03 C403.99,864.25 440.78,857.93 473.00,851.60 C485.67,849.11 539.32,831.67 561.00,823.00 C573.92,817.83 632.68,797.83 655.04,790.99 C698.75,777.62 750.71,772.92 785.00,779.24 C795.26,781.13 804.62,781.71 805.80,780.53 C806.04,780.30 805.22,778.47 803.99,776.48 C802.22,773.62 801.28,772.96 799.55,773.40 C797.05,774.03 792.46,769.74 787.10,761.76 C775.81,744.95 739.94,707.45 725.12,696.95 C706.08,683.47 687.56,675.65 667.00,672.41 C650.99,669.88 624.04,670.96 606.00,674.85 C592.34,677.80 567.14,685.34 537.00,695.50 C527.92,698.56 514.65,702.82 507.50,704.97 C482.97,712.34 426.53,725.88 405.49,729.45 C393.94,731.41 377.98,734.17 370.00,735.59 C359.08,737.52 350.68,738.29 336.00,738.68 C317.29,739.19 315.54,739.06 293.00,735.63 C265.02,731.37 262.32,730.87 248.88,727.48 C218.52,719.83 201.68,713.11 187.11,702.83 C181.87,699.12 177.40,696.27 177.18,696.49 C176.78,696.89 179.28,724.30 181.04,738.68 C182.65,751.86 189.17,770.53 198.20,787.78 C209.64,809.66 220.86,823.31 238.00,836.21 C258.46,851.61 282.35,861.22 310.50,865.40 ZM 499.50 837.37 C487.48,842.01 463.08,834.53 449.35,821.98 C441.96,815.22 437.14,808.42 431.52,796.82 C421.30,775.71 421.98,761.21 433.82,747.89 C439.61,741.39 446.05,738.82 458.00,738.24 C470.43,737.64 477.63,739.06 488.00,744.16 C495.23,747.71 498.15,749.99 507.55,759.42 C516.93,768.83 519.22,771.78 522.74,779.00 C527.65,789.08 529.65,800.12 527.95,807.74 C525.42,819.02 515.26,832.35 507.44,834.66 C505.27,835.30 501.70,836.52 499.50,837.37 ZM 598.79 800.07 C588.23,802.81 581.77,802.45 568.25,798.37 C560.99,796.18 547.31,789.34 542.99,785.76 C539.98,783.26 532.14,773.35 527.66,766.38 C520.24,754.87 518.77,750.13 519.16,739.00 C519.45,730.86 519.92,728.67 522.44,723.71 C525.86,716.95 531.66,711.26 539.16,707.31 C544.13,704.69 545.29,704.50 556.00,704.54 C566.73,704.57 568.11,704.81 576.68,708.12 C589.25,712.98 596.25,717.35 603.73,725.00 C617.24,738.83 622.81,750.00 623.63,764.92 C624.15,774.36 624.11,774.60 620.63,781.50 C614.91,792.87 609.79,797.22 598.79,800.07 ZM 403.33 846.08 C399.13,847.74 394.99,848.45 388.50,848.66 C380.74,848.90 378.40,848.55 371.50,846.12 C358.29,841.46 355.05,839.35 344.71,828.64 C336.80,820.44 334.00,816.68 330.06,809.00 C323.69,796.58 322.60,792.37 322.91,781.56 C323.28,768.95 325.50,763.52 333.13,756.62 C338.24,751.99 340.19,750.92 346.18,749.46 C359.75,746.13 375.22,749.07 389.00,757.58 C401.21,765.12 410.80,775.63 417.32,788.62 C424.15,802.22 424.86,819.75 419.07,831.52 C415.32,839.13 411.10,843.04 403.33,846.08 ZM 302.38 838.00 C296.69,841.98 296.63,842.00 287.58,841.90 C271.12,841.72 257.49,835.61 244.46,822.55 C235.21,813.29 228.99,802.16 226.50,790.44 C224.63,781.57 224.64,777.82 226.55,770.47 C228.81,761.81 231.84,756.37 235.94,753.66 C250.95,743.73 264.66,743.41 282.49,752.58 C297.52,760.31 304.73,768.13 314.32,787.07 C317.93,794.19 318.17,795.27 318.66,806.06 C319.13,816.67 318.98,817.97 316.60,823.91 C313.87,830.71 311.52,834.00 309.39,834.00 C308.67,834.00 305.52,835.80 302.38,838.00 ZM 695.00 773.00 C675.12,778.92 651.26,770.58 632.83,751.26 C620.24,738.07 615.06,718.74 620.08,703.72 C622.56,696.30 626.19,692.24 634.20,687.97 C639.35,685.23 641.46,684.73 649.83,684.27 C661.39,683.63 672.51,685.99 680.70,690.82 C687.53,694.85 699.91,704.95 704.74,710.44 C708.62,714.86 712.86,724.22 715.09,733.32 C716.78,740.23 715.77,753.57 713.17,758.68 C709.90,765.08 702.80,770.68 695.00,773.00 ZM 462.51 419.75 C463.01,421.88 462.73,422.00 457.50,422.00 C452.67,422.00 451.85,421.71 451.10,419.75 C450.63,418.51 448.58,403.55 446.55,386.50 C444.52,369.45 442.00,348.75 440.96,340.50 C439.20,326.48 438.10,317.30 434.45,286.00 C433.00,273.60 426.43,212.10 425.53,202.50 C425.27,199.75 424.77,194.57 424.42,191.00 C424.06,187.43 424.02,184.74 424.33,185.03 C425.10,185.75 432.10,222.76 436.92,251.60 C442.09,282.45 445.25,303.07 454.45,366.00 C458.60,394.33 462.22,418.51 462.51,419.75 ZM 552.50 473.55 C517.85,487.14 488.79,498.46 487.93,498.70 C486.83,499.01 485.86,497.86 484.69,494.89 C483.77,492.56 483.14,490.53 483.28,490.38 C484.07,489.60 523.22,474.73 533.00,471.50 C539.33,469.41 552.98,464.39 563.35,460.34 C573.71,456.29 590.59,450.32 600.85,447.07 C616.94,441.98 665.25,425.21 697.43,413.55 C702.89,411.57 707.84,410.15 708.43,410.40 C709.10,410.68 709.06,410.87 708.30,410.92 C707.65,410.96 699.55,414.18 690.30,418.07 C655.02,432.90 613.30,449.70 552.50,473.55 Z" fill="rgba(0,169,85,1)"/>
<path d="M 310.50 865.40 C282.35,861.22 258.46,851.61 238.00,836.21 C220.86,823.31 209.64,809.66 198.20,787.78 C189.17,770.53 182.65,751.86 181.04,738.68 C179.28,724.30 176.78,696.89 177.18,696.49 C177.40,696.27 181.87,699.12 187.11,702.83 C201.68,713.11 218.52,719.83 248.88,727.48 C262.32,730.87 265.02,731.37 293.00,735.63 C315.54,739.06 317.29,739.19 336.00,738.68 C350.68,738.29 359.08,737.52 370.00,735.59 C377.98,734.17 393.94,731.41 405.49,729.45 C426.53,725.88 482.97,712.34 507.50,704.97 C514.65,702.82 527.92,698.56 537.00,695.50 C567.14,685.34 592.34,677.80 606.00,674.85 C624.04,670.96 650.99,669.88 667.00,672.41 C687.56,675.65 706.08,683.47 725.12,696.95 C739.94,707.45 775.81,744.95 787.10,761.76 C792.46,769.74 797.05,774.03 799.55,773.40 C801.28,772.96 802.22,773.62 803.99,776.48 C805.22,778.47 806.04,780.30 805.80,780.53 C804.62,781.71 795.26,781.13 785.00,779.24 C750.71,772.92 698.75,777.62 655.04,790.99 C632.68,797.83 573.92,817.83 561.00,823.00 C539.32,831.67 485.67,849.11 473.00,851.60 C440.78,857.93 403.99,864.25 389.00,866.03 C364.95,868.89 332.22,868.63 310.50,865.40 ZM 403.33 846.08 C411.10,843.04 415.32,839.13 419.07,831.52 C424.86,819.75 424.15,802.22 417.32,788.62 C410.80,775.63 401.21,765.12 389.00,757.58 C375.22,749.07 359.75,746.13 346.18,749.46 C340.19,750.92 338.24,751.99 333.13,756.62 C325.50,763.52 323.28,768.95 322.91,781.56 C322.60,792.37 323.69,796.58 330.06,809.00 C334.00,816.68 336.80,820.44 344.71,828.64 C355.05,839.35 358.29,841.46 371.50,846.12 C378.40,848.55 380.74,848.90 388.50,848.66 C394.99,848.45 399.13,847.74 403.33,846.08 ZM 302.38 838.00 C305.52,835.80 308.67,834.00 309.39,834.00 C311.52,834.00 313.87,830.71 316.60,823.91 C318.98,817.97 319.13,816.67 318.66,806.06 C318.17,795.27 317.93,794.19 314.32,787.07 C304.73,768.13 297.52,760.31 282.49,752.58 C264.66,743.41 250.95,743.73 235.94,753.66 C231.84,756.37 228.81,761.81 226.55,770.47 C224.64,777.82 224.63,781.57 226.50,790.44 C228.99,802.16 235.21,813.29 244.46,822.55 C257.49,835.61 271.12,841.72 287.58,841.90 C296.63,842.00 296.69,841.98 302.38,838.00 ZM 499.50 837.37 C501.70,836.52 505.27,835.30 507.44,834.66 C515.26,832.35 525.42,819.02 527.95,807.74 C529.65,800.12 527.65,789.08 522.74,779.00 C519.22,771.78 516.93,768.83 507.55,759.42 C498.15,749.99 495.23,747.71 488.00,744.16 C477.63,739.06 470.43,737.64 458.00,738.24 C446.05,738.82 439.61,741.39 433.82,747.89 C421.98,761.21 421.30,775.71 431.52,796.82 C437.14,808.42 441.96,815.22 449.35,821.98 C463.08,834.53 487.48,842.01 499.50,837.37 ZM 598.79 800.07 C609.79,797.22 614.91,792.87 620.63,781.50 C624.11,774.60 624.15,774.36 623.63,764.92 C622.81,750.00 617.24,738.83 603.73,725.00 C596.25,717.35 589.25,712.98 576.68,708.12 C568.11,704.81 566.73,704.57 556.00,704.54 C545.29,704.50 544.13,704.69 539.16,707.31 C531.66,711.26 525.86,716.95 522.44,723.71 C519.92,728.67 519.45,730.86 519.16,739.00 C518.77,750.13 520.24,754.87 527.66,766.38 C532.14,773.35 539.98,783.26 542.99,785.76 C547.31,789.34 560.99,796.18 568.25,798.37 C581.77,802.45 588.23,802.81 598.79,800.07 ZM 695.00 773.00 C702.80,770.68 709.90,765.08 713.17,758.68 C715.77,753.57 716.78,740.23 715.09,733.32 C712.86,724.22 708.62,714.86 704.74,710.44 C699.91,704.95 687.53,694.85 680.70,690.82 C672.51,685.99 661.39,683.63 649.83,684.27 C641.46,684.73 639.35,685.23 634.20,687.97 C626.19,692.24 622.56,696.30 620.08,703.72 C615.06,718.74 620.24,738.07 632.83,751.26 C651.26,770.58 675.12,778.92 695.00,773.00 ZM 428.75 680.27 C426.69,679.42 425.00,678.34 425.00,677.87 C425.00,677.40 426.98,674.12 429.41,670.58 C444.57,648.43 460.79,601.26 463.99,570.00 C466.17,548.69 465.07,514.02 462.11,510.84 C461.78,510.48 457.27,510.03 452.11,509.84 L 442.72 509.50 L 438.06 517.00 C418.63,548.26 391.40,572.72 366.99,580.84 C341.72,589.25 322.16,589.03 292.00,580.02 C262.01,571.05 224.29,547.36 199.37,521.83 C184.57,506.67 153.50,464.92 155.64,463.08 C156.11,462.67 163.70,456.05 172.50,448.37 C199.50,424.79 208.42,418.92 240.50,403.68 C258.19,395.28 264.65,392.72 273.50,390.64 C287.72,387.29 302.28,385.29 318.50,384.44 C332.10,383.73 337.02,384.31 359.00,389.15 C372.35,392.09 385.80,399.54 396.34,409.84 C405.84,419.12 420.20,437.60 429.49,452.50 C436.33,463.48 437.39,466.27 445.73,495.25 C446.12,496.61 445.63,497.00 443.55,497.00 C442.08,497.00 402.54,493.17 355.69,488.48 C308.83,483.80 268.25,479.76 265.50,479.49 C256.86,478.67 285.53,484.75 308.00,488.51 C319.83,490.48 338.05,493.22 348.50,494.58 C358.95,495.94 375.38,498.38 385.00,500.00 C394.62,501.62 410.15,503.85 419.50,504.96 C428.85,506.07 437.94,507.17 439.70,507.42 C442.82,507.85 442.94,507.72 444.49,502.37 L 446.09 496.89 L 453.04 497.57 C460.88,498.34 460.88,498.34 458.98,490.50 C457.67,485.09 455.02,461.70 455.02,455.50 C455.02,452.75 454.06,444.33 452.89,436.79 L 450.75 423.08 L 443.13 420.56 C438.93,419.18 433.02,417.53 430.00,416.90 C423.88,415.63 403.21,406.04 389.70,398.21 C368.59,385.97 347.41,366.22 337.45,349.50 C327.89,333.44 320.89,309.65 319.35,288.00 C318.74,279.56 320.35,263.00 323.62,244.00 C325.15,235.07 331.92,211.11 337.11,196.26 C340.58,186.31 355.99,155.87 362.67,145.77 C375.30,126.69 403.36,93.00 406.64,93.00 C410.96,93.00 428.50,104.33 454.06,123.63 C485.49,147.37 524.46,195.80 537.35,227.11 C546.78,250.05 550.20,266.96 550.17,290.50 L 550.15 307.50 L 546.19 319.00 C536.27,347.79 532.30,355.20 516.24,374.89 C502.15,392.17 490.94,403.11 477.00,413.23 C470.12,418.22 464.38,422.38 464.24,422.49 C464.10,422.59 464.64,427.36 465.44,433.09 C466.23,438.82 467.38,451.04 467.99,460.25 C468.96,475.00 471.24,491.57 472.46,492.79 C472.69,493.03 474.82,492.15 477.19,490.84 C481.01,488.73 481.58,487.96 482.18,483.98 C482.55,481.52 482.89,475.04 482.93,469.58 C482.99,461.33 483.70,456.95 487.16,443.61 C494.67,414.66 506.64,393.71 526.00,375.63 C534.73,367.48 538.31,364.92 547.27,360.40 C566.97,350.46 570.58,349.38 594.15,346.39 C615.01,343.74 615.99,343.70 637.00,344.84 C671.99,346.73 686.02,349.81 724.11,363.99 C746.01,372.15 765.02,382.30 764.99,385.84 C764.95,389.34 762.01,399.75 759.43,405.50 C757.95,408.80 753.51,419.15 749.57,428.50 C741.32,448.05 734.64,459.09 715.19,485.24 C694.49,513.07 689.84,517.84 670.30,531.26 C639.60,552.35 620.28,558.89 591.00,558.11 C578.42,557.78 564.58,553.91 546.11,545.55 C525.78,536.35 498.90,517.17 490.22,505.67 L 486.00 500.09 L 479.75 502.89 L 473.50 505.69 L 473.74 510.10 C473.87,512.52 474.07,525.97 474.18,540.00 C474.34,561.26 474.02,568.08 472.24,581.00 C467.36,616.59 459.04,639.75 439.13,673.25 C436.26,678.06 433.60,681.96 433.21,681.90 C432.82,681.85 430.81,681.11 428.75,680.27 ZM 552.50 473.55 C613.30,449.70 655.02,432.90 690.30,418.07 C699.55,414.18 707.65,410.96 708.30,410.92 C709.06,410.87 709.10,410.68 708.43,410.40 C707.84,410.15 702.89,411.57 697.43,413.55 C665.25,425.21 616.94,441.98 600.85,447.07 C590.59,450.32 573.71,456.29 563.35,460.34 C552.98,464.39 539.33,469.41 533.00,471.50 C523.22,474.73 484.07,489.60 483.28,490.38 C483.14,490.53 483.77,492.56 484.69,494.89 C485.86,497.86 486.83,499.01 487.93,498.70 C488.79,498.46 517.85,487.14 552.50,473.55 ZM 462.51 419.75 C462.22,418.51 458.60,394.33 454.45,366.00 C445.25,303.07 442.09,282.45 436.92,251.60 C432.10,222.76 425.10,185.75 424.33,185.03 C424.02,184.74 424.06,187.43 424.42,191.00 C424.77,194.57 425.27,199.75 425.53,202.50 C426.43,212.10 433.00,273.60 434.45,286.00 C438.10,317.30 439.20,326.48 440.96,340.50 C442.00,348.75 444.52,369.45 446.55,386.50 C448.58,403.55 450.63,418.51 451.10,419.75 C451.85,421.71 452.67,422.00 457.50,422.00 C462.73,422.00 463.01,421.88 462.51,419.75 Z" fill="rgba(254,254,254,1)"/>
</g>
</svg>