<svg xmlns="http://www.w3.org/2000/svg" width="947" height="1107" viewBox="0 0 947 1107">
<g>
<path d="M 665.00 479.95 C664.91,479.99 664.81,480.03 664.72,480.06 C646.08,487.45 633.45,496.27 615.50,514.41 C590.32,539.88 563.70,579.27 539.87,626.34 C535.46,635.05 531.71,642.03 531.53,641.84 C531.36,641.65 532.49,634.97 534.06,627.00 C537.46,609.59 540.58,585.76 542.04,566.00 C544.73,529.38 544.27,439.37 541.00,365.00 C540.48,353.17 539.80,337.20 539.48,329.50 C539.42,328.05 539.33,326.14 539.22,323.87 C539.41,327.33 539.83,330.00 540.22,330.00 C540.65,330.00 541.00,329.55 541.00,329.01 C541.00,327.14 557.81,293.50 565.00,281.00 C580.88,253.36 595.70,233.36 614.94,213.65 C658.98,168.49 712.51,132.29 766.00,111.49 C790.66,101.90 809.49,97.02 835.34,93.51 L 840.18 92.85 L 828.99 105.18 C808.38,127.89 787.60,154.97 775.43,175.00 C764.71,192.64 758.50,207.05 748.94,236.47 C709.07,359.19 692.18,405.47 666.25,463.00 C662.16,472.08 658.59,480.24 658.32,481.15 C657.94,482.40 659.24,482.20 665.00,479.95 ZM 180.59 436.50 L 180.93 437.59 L 189.54 438.83 C208.38,441.56 227.00,449.82 242.50,462.34 C252.27,470.23 265.38,485.12 271.09,494.82 L 274.68 500.91 L 275.33 524.21 C276.61,569.72 280.75,602.30 289.09,632.50 C298.98,668.32 313.90,707.31 329.25,737.43 L 335.50 749.69 L 309.50 750.34 C306.78,750.41 303.87,750.48 300.89,750.54 L 292.19 741.75 C281.46,730.90 276.34,724.49 266.45,709.50 C252.57,688.45 239.82,663.99 225.57,631.09 C206.35,586.71 190.83,565.83 169.69,555.94 C155.57,549.33 143.17,549.61 128.52,556.88 C117.77,562.21 109.72,569.75 100.92,582.74 C76.89,618.22 51.91,645.20 28.45,661.03 C20.01,666.73 8.22,672.63 3.35,673.59 L 0.20 674.21 L 7.00 658.35 C21.38,624.80 34.91,585.88 40.48,562.00 C49.65,522.74 64.46,495.82 90.39,471.28 C113.01,449.86 137.25,439.39 166.80,438.27 C178.07,437.84 180.62,437.56 180.59,436.50 ZM 528.55 14.29 C525.39,18.31 522.79,22.07 522.43,23.57 C522.04,25.18 519.35,32.35 516.44,39.50 C505.07,67.48 496.18,97.19 485.63,142.52 C464.27,234.27 455.37,295.59 454.30,358.50 C453.67,395.36 454.59,416.79 459.55,480.00 C465.55,556.63 466.13,567.35 466.71,612.67 C467.41,668.13 466.16,693.92 460.82,733.75 L 458.64 750.00 L 429.50 750.00 L 429.42 713.75 C429.32,667.45 426.59,627.99 418.43,555.00 C412.40,501.05 402.82,433.66 396.30,399.13 C396.42,399.59 396.51,399.82 396.55,399.78 C396.71,399.62 398.47,389.88 400.45,378.13 C425.45,230.11 461.77,115.75 506.26,45.00 C511.72,36.32 520.99,23.73 528.55,14.29 ZM 171.82 408.51 C173.12,412.86 174.50,417.33 176.00,422.04 L 180.33 435.70 C178.16,429.94 175.08,420.00 171.82,408.51 ZM 393.72 385.79 C390.29,368.27 387.44,354.32 384.96,343.00 C388.04,356.59 391.15,371.73 393.72,385.79 ZM 704.63 467.79 C692.09,470.52 678.92,474.50 665.88,479.61 C666.02,479.55 666.15,479.50 666.30,479.44 C678.85,474.46 691.98,470.51 704.63,467.79 ZM 540.64 1.31 C539.51,1.64 535.79,5.54 532.00,10.04 C536.66,4.43 540.11,0.78 540.63,1.30 C540.64,1.30 540.64,1.31 540.64,1.31 ZM 539.20 323.32 C538.75,314.19 537.95,299.68 537.15,286.29 C538.15,303.02 539.04,319.01 539.17,322.75 C539.18,322.94 539.19,323.13 539.20,323.32 ZM 157.78 352.80 C158.32,355.10 158.87,357.50 159.42,360.00 C159.97,362.48 160.51,364.88 161.04,367.22 C160.11,363.28 159.25,359.50 158.49,356.00 C158.26,354.92 158.02,353.85 157.78,352.80 ZM 247.16 752.62 C244.17,753.83 242.74,755.92 241.00,759.50 C242.75,755.89 243.92,753.81 247.16,752.62 ZM 534.62 123.16 C535.64,93.20 537.16,61.12 539.05,31.07 C537.15,61.38 535.64,93.38 534.62,123.16 ZM 140.04 301.50 C142.87,307.26 145.30,312.72 147.49,318.35 C145.29,312.72 142.84,307.19 140.04,301.50 Z" fill="rgba(68,78,54,1)"/>
<path d="M 279.79 750.89 C289.11,750.78 300.33,750.57 309.50,750.34 L 335.50 749.69 L 329.25 737.43 C313.90,707.31 298.98,668.32 289.09,632.50 C280.75,602.30 276.61,569.72 275.33,524.21 L 274.68 500.91 L 271.09 494.82 C265.38,485.12 252.27,470.23 242.50,462.34 C227.00,449.82 208.38,441.56 189.54,438.83 L 180.93 437.59 L 176.00 422.04 C169.08,400.26 164.67,383.75 159.42,360.00 C153.73,334.22 148.77,319.27 140.04,301.50 C129.00,279.01 114.82,258.23 96.54,237.69 C89.19,229.44 88.25,228.00 90.20,228.00 C94.45,228.00 107.57,233.01 122.61,240.37 C160.21,258.79 191.68,281.61 224.08,313.95 C243.27,333.12 257.04,349.47 270.01,368.50 L 277.50 379.50 L 278.00 355.49 C278.62,325.49 277.66,295.61 275.63,282.34 C269.59,242.76 251.76,201.80 214.97,142.96 C202.16,122.46 199.39,117.00 201.83,117.00 C202.29,117.00 207.78,119.75 214.04,123.11 C269.42,152.85 315.04,197.03 349.32,254.12 C358.95,270.16 372.23,296.67 375.47,306.31 C380.53,321.39 385.90,345.25 395.89,397.00 C402.42,430.83 412.28,499.92 418.43,555.00 C426.59,627.99 429.32,667.45 429.42,713.75 L 429.50 750.00 L 458.64 750.00 L 460.82 733.75 C466.16,693.92 467.41,668.13 466.71,612.67 C466.13,567.35 465.55,556.63 459.55,480.00 C454.59,416.79 453.67,395.36 454.30,358.50 C455.37,295.59 464.27,234.27 485.63,142.52 C496.18,97.19 505.07,67.48 516.44,39.50 C519.35,32.35 522.04,25.18 522.43,23.57 C523.40,19.50 541.02,-1.38 540.99,1.58 C540.98,2.08 540.55,8.80 540.01,16.50 C534.60,95.05 531.78,193.14 533.88,230.50 C534.49,241.50 535.88,265.12 536.95,283.00 C538.03,300.88 539.17,321.80 539.48,329.50 C539.80,337.20 540.48,353.17 541.00,365.00 C544.27,439.37 544.73,529.38 542.04,566.00 C540.58,585.76 537.46,609.59 534.06,627.00 C532.49,634.97 531.36,641.65 531.53,641.84 C531.71,642.03 535.46,635.05 539.87,626.34 C563.70,579.27 590.32,539.88 615.50,514.41 C633.45,496.27 646.08,487.45 664.72,480.06 C695.75,467.76 727.59,461.76 750.26,463.95 C779.99,466.81 799.01,477.49 824.30,505.49 C839.49,522.32 843.60,528.88 878.51,592.00 C887.18,607.67 897.85,626.25 902.21,633.28 C917.84,658.44 932.03,674.96 942.08,679.71 L 946.50 681.79 L 941.87 682.49 C939.32,682.88 933.93,682.68 929.88,682.05 C911.38,679.18 890.89,669.46 860.78,649.26 C849.92,641.98 836.21,633.24 830.31,629.84 C778.49,599.99 732.26,593.39 693.50,610.29 C689.65,611.97 686.19,613.60 685.81,613.92 C685.42,614.24 687.98,614.59 691.49,614.71 C714.09,615.43 750.73,640.75 783.84,678.51 C797.79,694.42 822.23,726.00 820.60,726.00 C820.39,726.00 815.77,723.21 810.35,719.80 C781.48,701.63 750.08,688.72 728.50,686.13 C715.88,684.62 708.08,685.91 696.64,691.42 C677.31,700.73 661.59,711.36 629.35,736.91 L 612.20 750.50 L 622.35 751.00 C627.06,751.23 630.19,751.53 632.49,752.20 C626.61,750.98 601.39,750.95 440.55,750.92 L 279.79 750.89 ZM 620.61 997.00 L 262.40 997.00 L 262.23 928.25 L 262.15 894.25 L 441.50 893.87 L 620.86 893.50 L 620.77 929.55 L 620.61 997.00 ZM 241.00 759.50 C242.71,755.96 244.13,753.88 247.04,752.67 L 246.53 752.98 C244.60,754.17 242.22,756.98 241.00,759.50 ZM 634.33 752.90 C636.04,753.73 637.24,754.95 638.50,756.77 C637.30,755.28 635.66,753.72 634.35,752.91 C634.34,752.91 634.34,752.90 634.33,752.90 ZM 621.04 817.00 L 621.00 834.39 L 621.00 817.00 L 621.04 817.00 ZM 262.00 831.15 L 261.97 817.00 L 262.00 817.00 L 262.00 831.15 ZM 640.80 761.45 C641.45,764.39 641.50,769.70 641.50,784.00 C641.50,769.91 641.43,764.46 640.80,761.45 Z" fill="rgba(116,121,77,1)"/>
<path d="M 306.50 1105.61 C293.60,1101.50 290.65,1097.76 275.30,1066.00 L 262.50 1039.50 L 262.18 1018.25 L 261.86 997.00 L 441.51 997.00 L 621.17 997.00 L 620.83 1019.55 L 620.50 1042.10 L 608.00 1066.80 C594.14,1094.19 589.90,1099.99 580.70,1104.15 L 575.50 1106.50 L 443.00 1106.69 C338.09,1106.84 309.67,1106.62 306.50,1105.61 ZM 262.00 855.62 L 262.00 817.00 L 256.40 817.00 C249.35,817.00 244.66,814.81 241.77,810.14 C239.63,806.71 239.48,805.30 239.18,785.21 C238.88,765.14 238.98,763.67 241.00,759.50 C242.22,756.98 244.60,754.17 246.53,752.98 L 249.92 750.89 L 440.55 750.92 C627.90,750.95 631.25,750.99 634.35,752.91 C636.08,753.98 638.40,756.36 639.50,758.18 C641.34,761.24 641.50,763.27 641.50,784.00 C641.50,805.64 641.41,806.64 639.23,810.14 C636.46,814.60 631.69,817.00 625.60,817.00 L 621.00 817.00 L 621.00 855.25 L 621.00 893.50 L 441.50 893.87 L 262.00 894.25 L 262.00 855.62 Z" fill="rgba(200,130,81,1)"/>
</g>
</svg>